<?xml version="1.0" encoding="utf-8"?>
<!-- Generator: Adobe Illustrator 27.5.0, SVG Export Plug-In . SVG Version: 6.00 Build 0)  -->
<svg version="1.1" xmlns="http://www.w3.org/2000/svg" xmlns:xlink="http://www.w3.org/1999/xlink" x="0px" y="0px"
	 viewBox="0 0 750 500" style="enable-background:new 0 0 750 500;" xml:space="preserve">
<g id="BACKGROUND">
	<rect style="fill:#FFFFFF;" width="750" height="500"/>
</g>
<g id="OBJECTS">
	<g>
		<g>
			<g>
				<g>
					<path style="fill:#454658;" d="M190.051,210.769l2.65-0.24c0.166-0.015,0.289-0.216,0.289-0.472v-12.717
						c0-0.256-0.123-0.495-0.289-0.561l-2.65-1.055V210.769z"/>
					<path style="fill:#381905;" d="M192.47,196.816c0.164,0.065,0.286,0.302,0.286,0.555v2.205l0,0
						c-0.728-0.122-1.322,0.683-1.322,1.799v4.381c0,1.116,0.593,2.102,1.322,2.203l0,0v1.993c0,0.253-0.122,0.452-0.286,0.467
						l-2.623,0.237v-14.883L192.47,196.816z"/>
				</g>
				<path style="fill:#381905;" d="M173.271,355.618l-54.789,22.393c-8.998,3.252-21.85-3.809-21.85-15.051V132.537
					c0-11.242,8-20.247,24.631-14.344l52.008,21.687c5.964,2.155,10.626,10.833,10.626,19.46v176.818
					C183.897,344.785,179.235,353.463,173.271,355.618z"/>
				<path style="fill:#454658;" d="M181.271,355.618l-60.008,21.687c-8.998,3.252-16.631-3.103-16.631-14.344V132.537
					c0-11.242,7.633-17.596,16.631-14.344l60.008,21.687c5.964,2.155,10.626,10.833,10.626,19.46v176.818
					C191.897,344.785,187.235,353.463,181.271,355.618z"/>
				<path style="fill:#381905;" d="M121.264,372.758c-6.844,2.387-12.607-2.525-12.607-11.033V133.773
					c0-8.508,5.763-13.419,12.607-11.033l60.007,20.926c4.584,1.598,8.21,8.277,8.21,14.932V336.9c0,6.655-3.626,13.333-8.21,14.932
					L121.264,372.758z"/>
				<g>
					<path style="fill:#D5D7E6;" d="M181.271,145.938l-6.4-2.183c-0.799-0.273-1.45,0.44-1.45,1.592l0,0
						c0,3.273-1.864,5.339-4.195,4.605l-32.007-10.081c-2.881-0.908-5.253-4.667-5.253-8.383l0,0c0-1.308-0.843-2.656-1.888-3.013
						l-8.815-3.007c-5.58-1.904-10.233,2.117-10.233,9.034v226.493c0,6.917,4.653,10.937,10.233,9.034l60.007-20.469
						c3.761-1.283,6.741-6.736,6.741-12.209V158.147C188.012,152.674,185.032,147.221,181.271,145.938z"/>
					<polygon style="fill:#FFFFFF;" points="187.382,214.301 187.382,165.743 112.034,144.609 112.034,205.681 					"/>
					<polygon style="fill:#EEEDFB;" points="182.007,176.452 121.586,161.983 121.586,157.607 182.007,172.814 					"/>
					<polygon style="fill:#EEEDFB;" points="182.007,184.19 121.586,171.291 121.586,166.915 182.007,180.552 					"/>
					<polygon style="fill:#EEEDFB;" points="182.007,191.928 121.586,180.6 121.586,176.224 182.007,188.29 					"/>
					<polygon style="fill:#EEEDFB;" points="182.007,199.666 121.586,189.908 121.586,185.532 182.007,196.028 					"/>
					<polygon style="fill:#FFFFFF;" points="187.382,307.734 187.382,240.757 112.034,238.955 112.034,323.193 					"/>
					<polygon style="fill:#EEEDFB;" points="126.954,304.372 177.208,296.306 177.208,261.653 126.954,263.962 					"/>
					<polygon style="fill:#EEEDFB;" points="182.007,248.96 121.586,249.206 121.586,244.83 182.007,245.322 					"/>
					<polygon style="fill:#EEEDFB;" points="182.007,256.698 121.586,258.514 121.586,254.138 182.007,253.06 					"/>
				</g>
			</g>
			<path style="fill:#454658;" d="M98.872,228.849h-2.99c-0.831,0-1.505-0.674-1.505-1.505v-20.637c0-0.831,0.674-1.505,1.505-1.505
				h2.99c0.831,0,1.505,0.674,1.505,1.505v20.637C100.377,228.175,99.703,228.849,98.872,228.849z"/>
			<path style="fill:#454658;" d="M98.872,201.643h-2.99c-0.831,0-1.505-0.674-1.505-1.505v-20.637c0-0.831,0.674-1.505,1.505-1.505
				h2.99c0.831,0,1.505,0.674,1.505,1.505v20.637C100.377,200.969,99.703,201.643,98.872,201.643z"/>
			<path style="fill:#454658;" d="M98.872,171.398h-2.99c-0.831,0-1.505-0.674-1.505-1.505v-8.813c0-0.831,0.674-1.505,1.505-1.505
				h2.99c0.831,0,1.505,0.674,1.505,1.505v8.813C100.377,170.724,99.703,171.398,98.872,171.398z"/>
		</g>
		<g>
			<ellipse style="fill:#BFC9E2;" cx="213.104" cy="374.229" rx="40.95" ry="9.425"/>
			<g>
				<g>
					<g>
						<g>
							<g>
								<g>
									<path style="fill:#FF8B6A;" d="M211.333,377.545c1.262-1.063,0.111-3.211,0.056-7.318
										c-0.04-2.969,0.546-3.059,3.719-14.981c1.265-4.752,1.617-6.629,1.953-9.041c0.252-1.81,0.376-3.925,0.284-6.868
										c-0.141-4.521-0.979-11.027-4.293-18.874c-0.791-0.556-2.502-1.577-4.809-1.587c-1.029-0.005-3.64,0.056-5.089,1.978
										c-0.531,0.704-0.779,1.694-0.673,3.135c-0.03,0.034,3.486,38.204,3.044,45.767c-0.331,5.662-1.433,6.01-1.719,6.003
										C206.39,377.236,209.821,378.819,211.333,377.545z"/>
								</g>
							</g>
						</g>
						<g>
							<path style="fill:#08051A;" d="M200.044,372.19c0,0,1.874-1.033,2.659-2.161s2.113-3.936,2.389-3.962
								c0.276-0.027,2.501,0.802,2.718,1.074c0.218,0.272-4.041,4.368-3.846,4.47c0.195,0.103,1.389,2.594,0.673,2.933
								c-0.716,0.339-3.635-0.136-3.635-0.136l-0.948-1.639L200.044,372.19z"/>
							<path style="fill:#454658;" d="M193.879,375.153c0,0,0.149-1.086,0.844-1.397c0.695-0.311,3.769-0.624,3.98-0.713
								c0.211-0.089,1.405-0.94,1.744-0.989c0.339-0.049,2.906,2.09,3.51,1.973c0.604-0.118-1.297-1.761-1.026-2.02
								c0.271-0.259,2.965-2.711,3.066-2.989c0.101-0.278,3.839,1.924,7.2,1.031l0.818,5.019l0.025,1.295l-1.437,0.382l-4.018-0.151
								l-5.399,0.931l-2.775,0.414l-4.22-0.727l-2.457-1.844L193.879,375.153z"/>
							<path style="fill:#FFFFFF;" d="M193.554,375.903c-0.023-0.06,0.023-0.999,0.276-1.11c0.253-0.111,0.424,1.054,0.594,1.093
								c0.171,0.039,2.875,1.517,7.566,1.3c4.69-0.217,5.39-1.42,7.596-1.568c2.206-0.148,4.365,0.554,4.429-0.552
								c0.08,0.18,0.931,2.145,0.019,3.171c-0.492,0.554-1.266,0.576-2.476,0.593c-2.17,0.031-2.934-0.226-4.492-0.535
								c-0.661-0.131-1.538,0.649-3.573,0.901S194.716,378.918,193.554,375.903z"/>
							<g>
								<path style="fill:#454658;" d="M200.278,372.417c-0.077-0.003-0.147-0.057-0.165-0.136
									c-0.023-0.095,0.036-0.191,0.131-0.213c1.033-0.245,2.124-0.243,3.156,0.004c0.095,0.023,0.154,0.118,0.131,0.214
									c-0.023,0.095-0.12,0.155-0.214,0.131c-0.979-0.235-2.013-0.236-2.992-0.004
									C200.31,372.417,200.294,372.418,200.278,372.417z"/>
							</g>
							<g>
								<path style="fill:#454658;" d="M203.156,372.249c-0.034-0.001-0.068-0.012-0.098-0.034c-0.15-0.11-0.305-0.235-0.463-0.364
									c-0.346-0.282-0.703-0.573-1.062-0.727c-0.09-0.039-0.131-0.143-0.092-0.233c0.039-0.09,0.144-0.13,0.233-0.092
									c0.404,0.174,0.781,0.481,1.145,0.778c0.153,0.125,0.303,0.246,0.448,0.353c0.079,0.058,0.096,0.168,0.039,0.247
									C203.269,372.226,203.213,372.251,203.156,372.249z"/>
							</g>
							<g>
								<path style="fill:#454658;" d="M200.123,372.27c-0.063-0.002-0.122-0.038-0.152-0.098c-0.043-0.088-0.008-0.194,0.08-0.238
									c0.909-0.45,3.212-1.323,4.526-1.126c0.097,0.014,0.164,0.104,0.15,0.201c-0.014,0.097-0.105,0.167-0.201,0.15
									c-1.113-0.162-3.233,0.556-4.317,1.094C200.181,372.266,200.152,372.271,200.123,372.27z"/>
							</g>
							<g>
								<path style="fill:#454658;" d="M204.69,370.869c-0.037-0.001-0.074-0.014-0.105-0.039c-0.443-0.36-1.175-0.799-1.701-1.021
									c-0.09-0.038-0.132-0.142-0.094-0.232c0.039-0.09,0.142-0.133,0.232-0.094c0.553,0.233,1.32,0.695,1.786,1.072
									c0.076,0.062,0.088,0.173,0.026,0.249C204.798,370.848,204.744,370.871,204.69,370.869z"/>
							</g>
							<g>
								<path style="fill:#454658;" d="M202.147,370.663c-0.061-0.002-0.12-0.036-0.15-0.095c-0.046-0.087-0.012-0.194,0.074-0.239
									c0.924-0.485,2.459-0.772,3.496-0.657c0.097,0.011,0.167,0.099,0.156,0.195c-0.011,0.098-0.098,0.168-0.196,0.156
									c-0.976-0.107-2.422,0.162-3.292,0.619C202.207,370.657,202.177,370.664,202.147,370.663z"/>
							</g>
							<g>
								<path style="fill:#454658;" d="M206.082,369.357c-0.027-0.001-0.055-0.008-0.08-0.022c-0.754-0.426-1.959-0.473-2.744-0.109
									c-0.089,0.042-0.194,0.003-0.235-0.086c-0.041-0.089-0.003-0.194,0.086-0.235c0.892-0.415,2.21-0.362,3.067,0.121
									c0.085,0.048,0.115,0.156,0.067,0.241C206.209,369.327,206.146,369.359,206.082,369.357z"/>
							</g>
							<g>
								<path style="fill:#454658;" d="M205.635,369.922c-0.042-0.002-0.084-0.018-0.117-0.05l-0.244-0.243
									c-0.44-0.44-1.104-1.104-1.544-1.322c-0.088-0.044-0.124-0.15-0.08-0.238c0.043-0.088,0.149-0.124,0.238-0.08
									c0.492,0.244,1.154,0.906,1.637,1.389l0.241,0.24c0.07,0.068,0.071,0.181,0.003,0.25
									C205.732,369.906,205.683,369.923,205.635,369.922z"/>
							</g>
						</g>
					</g>
					<g>
						<g>
							<path style="fill:#FF8B6A;" d="M206.474,266.828c0,0-6.999,51.101-3.998,59.1c3.001,7.999,12.937,4.533,13.228,0.112
								c0.29-4.421,13.461-52.708,13.461-52.708L206.474,266.828z"/>
						</g>
					</g>
					<path style="fill:#00667C;" d="M213.677,362.849c-0.163,0.561-0.671,0.945-1.256,0.954c-1.047,0.016-2.343-0.07-3.785-0.412
						c-1.295-0.307-2.383-0.743-3.243-1.167c-0.427-0.21-0.7-0.636-0.725-1.112c-0.39-7.403-2.749-34.799-2.807-34.954
						c-3.023-8.06,3.676-57.325,3.962-59.419l0.103-0.75c2.995-5.642,9.623-8.274,15.457-6.294
						c5.425,1.841,9.013,7.281,8.582,13.185c-0.782,2.887-1.563,5.773-2.345,8.66c-4.129,14.609-7.892,29.455-11.265,44.542
						c-0.083,0.372-0.166,0.745-0.249,1.117c1.131,4.041,1.767,8.116,1.892,12.116c0.085,2.729-0.007,4.946-0.29,6.978
						c-0.349,2.501-0.715,4.411-1.968,9.121C214.876,358.67,214.198,361.056,213.677,362.849z"/>
					
						<path style="fill:none;stroke:#08051A;stroke-width:0.5;stroke-linecap:round;stroke-linejoin:round;stroke-miterlimit:10;" d="
						M229.313,270.867c0,0-2.506,1.45-4.523,1.917c0,0,0.035,5.089,0.091,8.131c0,0,1.749-0.748,2.748-1.918
						C228.628,277.827,229.313,270.867,229.313,270.867z"/>
					
						<path style="fill:none;stroke:#08051A;stroke-width:0.5;stroke-linecap:round;stroke-linejoin:round;stroke-miterlimit:10;" d="
						M218.634,320.464"/>
					
						<path style="fill:none;stroke:#08051A;stroke-width:0.5;stroke-linecap:round;stroke-linejoin:round;stroke-miterlimit:10;" d="
						M226.672,281.322"/>
				</g>
				<g>
					<g>
						<g>
							<g>
								<g>
									<path style="fill:#FF8B6A;" d="M236.02,376.753c1.089-1.24-0.37-3.191-1.04-7.244c-0.484-2.929,0.081-3.107,1.434-15.369
										c0.539-4.888,0.606-6.796,0.577-9.232c-0.021-1.828-0.216-3.938-0.747-6.833c-0.817-4.449-2.618-10.756-7.07-18.018
										c-0.866-0.431-2.71-1.184-4.992-0.849c-1.018,0.149-3.59,0.6-4.735,2.717c-0.419,0.775-0.516,1.791-0.196,3.201
										c-0.025,0.038,9.166,37.252,9.861,44.796c0.52,5.648-0.517,6.156-0.801,6.192
										C231.085,377.187,234.715,378.239,236.02,376.753z"/>
								</g>
							</g>
						</g>
						<g>
							<path style="fill:#08051A;" d="M224.056,373.148c0,0,1.698-1.302,2.306-2.535c0.608-1.233,1.5-4.208,1.769-4.275
								c0.269-0.068,2.593,0.419,2.848,0.655c0.256,0.236-3.341,4.924-3.134,4.996c0.208,0.072,1.762,2.357,1.105,2.799
								c-0.657,0.442-3.614,0.409-3.614,0.409l-1.182-1.479L224.056,373.148z"/>
							<path style="fill:#454658;" d="M218.404,377c0,0-0.015-1.096,0.626-1.507c0.641-0.411,3.633-1.181,3.828-1.301
								c0.195-0.119,1.249-1.14,1.577-1.239c0.328-0.099,3.186,1.632,3.766,1.425c0.579-0.207-1.546-1.547-1.316-1.844
								c0.229-0.297,2.525-3.124,2.584-3.414c0.058-0.29,4.084,1.327,7.273-0.058l1.56,4.84l0.218,1.277l-1.364,0.593l-3.995,0.453
								l-5.199,1.729l-2.682,0.825l-4.281-0.087l-2.705-1.455L218.404,377z"/>
							<path style="fill:#FFFFFF;" d="M218.195,377.79c-0.031-0.055-0.126-0.991,0.107-1.139c0.233-0.148,0.577,0.979,0.751,0.992
								c0.174,0.013,3.07,1.07,7.675,0.153c4.605-0.917,5.117-2.21,7.276-2.687c2.159-0.477,4.399-0.106,4.297-1.209
								c0.106,0.166,1.241,1.981,0.494,3.133c-0.403,0.621-1.165,0.759-2.359,0.957c-2.141,0.355-2.934,0.216-4.522,0.143
								c-0.673-0.031-1.424,0.872-3.398,1.425C226.542,380.112,219.795,380.598,218.195,377.79z"/>
							<g>
								<path style="fill:#454658;" d="M224.321,373.338c-0.077,0.009-0.154-0.034-0.184-0.11c-0.037-0.091,0.007-0.194,0.098-0.231
									c0.984-0.396,2.064-0.559,3.121-0.468c0.097,0.008,0.17,0.094,0.162,0.192c-0.008,0.098-0.095,0.171-0.192,0.161
									c-1.003-0.085-2.026,0.068-2.959,0.444C224.352,373.332,224.337,373.336,224.321,373.338z"/>
							</g>
							<g>
								<path style="fill:#454658;" d="M227.141,372.741c-0.034,0.004-0.069-0.002-0.102-0.019
									c-0.165-0.086-0.337-0.187-0.512-0.291c-0.384-0.227-0.781-0.461-1.159-0.56c-0.095-0.025-0.151-0.121-0.126-0.216
									c0.025-0.094,0.123-0.15,0.216-0.126c0.425,0.111,0.844,0.358,1.249,0.598c0.17,0.1,0.336,0.198,0.496,0.282
									c0.087,0.045,0.121,0.152,0.076,0.239C227.251,372.701,227.198,372.734,227.141,372.741z"/>
							</g>
							<g>
								<path style="fill:#454658;" d="M224.146,373.216c-0.063,0.007-0.127-0.019-0.165-0.074
									c-0.056-0.081-0.036-0.191,0.044-0.247c0.832-0.581,2.977-1.789,4.306-1.791c0.098-0.001,0.178,0.078,0.178,0.176
									c0.001,0.098-0.079,0.181-0.176,0.178c-1.124,0.006-3.114,1.034-4.105,1.727
									C224.203,373.203,224.174,373.212,224.146,373.216z"/>
							</g>
							<g>
								<path style="fill:#454658;" d="M228.452,371.146c-0.037,0.004-0.075-0.003-0.109-0.023c-0.492-0.29-1.281-0.614-1.835-0.755
									c-0.095-0.024-0.152-0.121-0.128-0.215c0.024-0.095,0.121-0.153,0.215-0.128c0.581,0.148,1.41,0.489,1.927,0.793
									c0.085,0.05,0.113,0.158,0.063,0.243C228.556,371.11,228.506,371.14,228.452,371.146z"/>
							</g>
							<g>
								<path style="fill:#454658;" d="M225.906,371.323c-0.061,0.007-0.124-0.018-0.163-0.071c-0.058-0.079-0.041-0.19,0.038-0.248
									c0.841-0.618,2.316-1.131,3.359-1.173c0.098-0.004,0.18,0.072,0.184,0.17c0.004,0.098-0.072,0.181-0.17,0.184
									c-0.981,0.04-2.371,0.523-3.162,1.105C225.965,371.309,225.936,371.32,225.906,371.323z"/>
							</g>
							<g>
								<path style="fill:#454658;" d="M229.602,369.443c-0.027,0.003-0.055,0-0.083-0.01c-0.809-0.308-2.008-0.174-2.729,0.303
									c-0.082,0.055-0.192,0.032-0.246-0.05c-0.054-0.082-0.032-0.191,0.05-0.245c0.82-0.543,2.131-0.689,3.051-0.339
									c0.091,0.035,0.137,0.137,0.103,0.229C229.723,369.395,229.666,369.436,229.602,369.443z"/>
							</g>
							<g>
								<path style="fill:#454658;" d="M229.244,370.068c-0.042,0.005-0.086-0.006-0.123-0.032l-0.278-0.203
									c-0.5-0.369-1.256-0.927-1.724-1.076c-0.093-0.03-0.145-0.13-0.115-0.223c0.029-0.093,0.129-0.145,0.223-0.115
									c0.523,0.168,1.277,0.723,1.827,1.129l0.275,0.201c0.079,0.057,0.098,0.168,0.04,0.247
									C229.338,370.038,229.292,370.063,229.244,370.068z"/>
							</g>
						</g>
					</g>
					<g>
						<g>
							<path style="fill:#FF8B6A;" d="M214.641,268.011c0,0,0.73,51.573,4.894,59.033c4.164,7.46,13.47,2.546,13.096-1.869
								c-0.375-4.414,5.42-54.129,5.42-54.129L214.641,268.011z"/>
						</g>
					</g>
					<path style="fill:#00667C;" d="M236.137,361.871c-0.077,0.579-0.522,1.034-1.099,1.131c-1.032,0.173-2.326,0.281-3.803,0.159
						c-1.326-0.11-2.467-0.378-3.381-0.668c-0.454-0.144-0.787-0.524-0.883-0.991c-1.494-7.261-7.928-33.995-8.008-34.14
						c-4.196-7.517-4.947-57.23-4.977-59.342l-0.011-0.757c2.116-6.027,8.276-9.621,14.341-8.537
						c5.64,1.009,10.001,5.85,10.459,11.752c-0.341,2.971-0.681,5.942-1.022,8.914c-1.896,15.062-3.394,30.305-4.47,45.727
						c-0.026,0.381-0.053,0.761-0.079,1.142c1.723,3.826,2.962,7.76,3.685,11.696c0.493,2.685,0.734,4.891,0.758,6.943
						c0.029,2.525-0.047,4.469-0.581,9.313C236.696,357.56,236.384,360.02,236.137,361.871z"/>
					
						<path style="fill:none;stroke:#08051A;stroke-width:0.5;stroke-linecap:round;stroke-linejoin:round;stroke-miterlimit:10;" d="
						M218.963,327.363c-4.196-7.517-4.947-57.23-4.977-59.342l-0.011-0.757c2.116-6.027,8.276-9.621,14.341-8.537"/>
					
						<path style="fill:none;stroke:#08051A;stroke-width:0.5;stroke-linecap:round;stroke-linejoin:round;stroke-miterlimit:10;" d="
						M212.768,274.861c-0.142,2.443-0.057,4.899,0.253,7.326c0.025,0.198,0.057,0.408,0.184,0.563
						c0.254,0.31,0.737,0.25,1.128,0.162"/>
					
						<path style="fill:none;stroke:#08051A;stroke-width:0.5;stroke-linecap:round;stroke-linejoin:round;stroke-miterlimit:10;" d="
						M234.694,319.222"/>
					
						<path style="fill:none;stroke:#08051A;stroke-width:0.5;stroke-linecap:round;stroke-linejoin:round;stroke-miterlimit:10;" d="
						M236.781,279.318"/>
				</g>
				<path style="fill:none;stroke:#08051A;stroke-width:0.5;stroke-linecap:round;stroke-linejoin:round;stroke-miterlimit:10;" d="
					M223.122,276.237c-0.178,1.163-0.357,2.339-0.252,3.511c0.105,1.172,0.525,2.357,1.381,3.164
					c0.856,0.807,2.198,1.151,3.256,0.636"/>
			</g>
			<g>
				<path style="fill:#E87578;" d="M172.292,209.944c-0.794-2.041,0.217-4.339,2.258-5.133c2.041-0.794,4.339,0.217,5.133,2.258
					c0.794,2.041-0.217,4.339-2.258,5.133C175.384,212.996,173.086,211.985,172.292,209.944z"/>
				<path style="fill:#E87578;" d="M201.948,204.964c-1.223-3.145,0.335-6.686,3.479-7.909c3.145-1.223,6.686,0.334,7.909,3.479
					c1.223,3.145-0.334,6.686-3.479,7.909C206.712,209.667,203.171,208.109,201.948,204.964z"/>
				<path style="fill:#E87578;" d="M206.117,196.092l-31.831,8.101c-2.386,0.928-3.568,3.615-2.64,6.002
					c0.732,1.882,2.558,3.014,4.468,2.954l-0.004,0.001l0.011-0.001c0.115-0.004,0.231-0.011,0.346-0.023
					c0.103-0.011,0.205-0.036,0.308-0.054l31.845-3.385c5.883-0.655,6.73-6.546,5.6-9.449
					C212.947,196.964,209.434,195.225,206.117,196.092z"/>
			</g>
			<g>
				<g>
					<path style="fill:#E87578;" d="M170.123,177.637l-0.018,0.005c-0.057-0.159-0.127-0.314-0.215-0.465
						c-0.794-1.369-2.548-1.835-3.917-1.041c-1.096,0.636-1.611,1.886-1.366,3.062l-0.002,0.001l0.01,0.043
						c0.001,0.006,0.003,0.012,0.004,0.018l6.804,30.159c0.016,0.081,0.034,0.162,0.055,0.242l0.024,0.107l0.005-0.002
						c0.103,0.369,0.249,0.731,0.45,1.078c1.285,2.215,4.122,2.969,6.337,1.684c1.921-1.115,2.741-3.397,2.086-5.428l0.002-0.001
						l-0.013-0.037c-0.005-0.014-0.009-0.027-0.014-0.04L170.123,177.637z"/>
					<path style="fill:#E87578;" d="M172.558,210.496c-1.099-1.894-0.454-4.32,1.44-5.419c1.894-1.099,4.32-0.454,5.419,1.44
						c1.099,1.894,0.454,4.32-1.44,5.419C176.083,213.035,173.656,212.391,172.558,210.496z"/>
				</g>
				<path style="fill:#E87578;" d="M165.549,179.721c-0.624-1.076-0.258-2.455,0.818-3.08s2.455-0.258,3.08,0.818
					c0.625,1.076,0.258,2.455-0.818,3.08C167.552,181.163,166.173,180.797,165.549,179.721z"/>
			</g>
			<g>
				<path style="fill:#E87578;" d="M166.477,170.871c-0.054-0.033-0.109-0.063-0.167-0.088c-0.319-0.141-0.724-0.139-0.987,0.091
					c-0.443,0.386,0.041,0.721-0.07,1.097c-0.042-0.074-0.091-0.143-0.145-0.208c0,0-0.077-0.097-0.173-0.189
					c-0.576-0.553-1.372-1.012-1.372-1.012c-0.14-0.081-0.462-0.263-1.165-0.599c-0.203-0.097-1.916-0.911-2.007-0.75
					c-0.051,0.09,0.474,0.374,0.429,0.801c-0.009,0.085-0.037,0.074-0.063,0.201c-0.065,0.319,0.166,0.69,0.025,0.985
					c-0.081,0.169-0.273,0.249-0.415,0.372c-0.268,0.232-0.346,0.657-0.178,0.97c0.112,0.207,0.321,0.381,0.32,0.615
					c-0.001,0.236-0.211,0.407-0.345,0.6c-0.461,0.66,0.043,1.254,0.511,1.697c0.173,0.165-0.548,0.698,0.042,1.765
					c0.572,1.034,1.644,1.676,2.442,2.502c0.765,0.79,1.735,1.551,2.785,1.907c1.164,0.394,2.629,0.18,3.335-0.826
					c0.546-0.779,0.519-1.815,0.402-2.759c-0.293-2.375-1.044-4.758-2.581-6.591C166.918,171.234,166.718,171.019,166.477,170.871z"
					/>
				<path style="fill:#E87578;" d="M160.494,171.481c0.114-0.079,0.23-0.157,0.289-0.28c0.141-0.295-0.09-0.666-0.025-0.985
					c0.057-0.282,0.218-0.497,0.448-0.672c0.021-0.016,0.045-0.023,0.067-0.038c-1.41-0.511-2.895-0.848-4.194-1.049
					c-0.25-0.039-0.51-0.072-0.753-0.003c-0.243,0.069-0.468,0.268-0.488,0.52c-0.031,0.389,0.389,0.641,0.746,0.798"/>
				<g>
					
						<path style="fill:none;stroke:#08051A;stroke-width:0.5;stroke-linecap:round;stroke-linejoin:round;stroke-miterlimit:10;" d="
						M161.187,171.108c0,0,3.298,2.465,3.212,2.964c-0.086,0.499-0.335,1.403-2.887-0.501"/>
					
						<path style="fill:none;stroke:#08051A;stroke-width:0.5;stroke-linecap:round;stroke-linejoin:round;stroke-miterlimit:10;" d="
						M163.252,174.615c0,0,1.806,1.229,1.424,2.197c-0.382,0.968-3.452-0.982-3.452-0.982"/>
					
						<path style="fill:none;stroke:#08051A;stroke-width:0.5;stroke-linecap:round;stroke-linejoin:round;stroke-miterlimit:10;" d="
						M162.636,176.604c0,0,1.917,1.241,1.505,1.873c-0.412,0.632-2.634-0.855-2.634-0.855"/>
				</g>
			</g>
			<g>
				<path style="fill:#E87578;" d="M251.468,229.142c-1.291,1.768-3.772,2.155-5.54,0.864c-1.769-1.291-2.155-3.772-0.864-5.54
					c1.292-1.768,3.772-2.155,5.54-0.863C252.372,224.893,252.759,227.373,251.468,229.142z"/>
				<path style="fill:#E87578;" d="M231.293,206.843c-1.99,2.725-5.812,3.321-8.538,1.331c-2.725-1.99-3.321-5.813-1.331-8.538
					c1.99-2.725,5.813-3.321,8.537-1.331C232.687,200.295,233.283,204.118,231.293,206.843z"/>
				<path style="fill:#E87578;" d="M221.573,208.111l23.976,22.449c2.068,1.51,4.969,1.058,6.479-1.01
					c1.191-1.631,1.161-3.779,0.081-5.355l0.003,0.003l-0.007-0.009c-0.065-0.095-0.133-0.189-0.206-0.279
					c-0.065-0.081-0.141-0.154-0.212-0.23l-20.011-25.003c-3.722-4.603-9.141-2.142-10.978,0.374
					C218.626,201.887,219.055,205.784,221.573,208.111z"/>
			</g>
			<path style="fill:#DBDBDB;" d="M229.164,195.306c3.86,2.69,15.86,18.717,16.683,19.704c0.824,0.986-5.977,8.091-8.341,9.02
				c0,0-11.349-12.595-11.857-13.373"/>
			<path style="fill:#DBDBDB;" d="M208.647,194.54c-7.976,1.927-18.094,5.127-18.094,5.127s0.169,7.283,2.202,12.806l13.045-1.545"
				/>
			<g>
				<g>
					<path style="fill:#DBDBDB;" d="M202.451,272.339c0.539,0.158,1.076,0.293,1.574,0.422c2.28,0.59,4.575,1.125,6.891,1.553
						c4.359,0.806,8.679,1.449,13.111,1.424c3.787-0.021,7.572-0.472,11.276-1.247c1.186-0.248,2.361-0.534,3.527-0.85
						c1.092-0.296,1.856-1.272,1.852-2.404c-0.008-2.523-0.145-6.055-1.486-6.013h0c-1.755-20.739-6.747-64.55-6.747-64.55
						c-1.029-6.152-7.053-8.459-17.177-7.381c-7.367,0.785-12.545,2.746-12.689,6.932l-0.417,65.757
						c-0.79,0.241-1.227,1.872-1.461,3.681C200.55,270.859,201.293,272.001,202.451,272.339z"/>
					
						<line style="fill:none;stroke:#08051A;stroke-width:0.5;stroke-linecap:round;stroke-linejoin:round;stroke-miterlimit:10;" x1="202.567" y1="202.749" x2="202.458" y2="219.955"/>
					
						<line style="fill:none;stroke:#08051A;stroke-width:0.5;stroke-linecap:round;stroke-linejoin:round;stroke-miterlimit:10;" x1="234.694" y1="220.846" x2="228.029" y2="213.151"/>
				</g>
			</g>
			<g>
				<g>
					<g>
						<path style="fill:#08051A;" d="M212.273,166.664c-0.129,0.22-8.543-0.38-5.757,9.121c0.799,2.724,10.161-4.305,9.213-4.728
							C214.781,170.635,212.273,166.664,212.273,166.664z"/>
						<g>
							<g>
								<path style="fill:#E87578;" d="M218.268,194.117l-1.779-0.238c-3.708-0.84-6.479,3.532-5.556,6.196
									C211.855,202.739,221.998,197.161,218.268,194.117z"/>
								<path style="fill:#E87578;" d="M213.776,194.54c0.015,0.039,0.469,0.425,0.962,0.836c0.964,0.803,2.32,1.037,3.449,0.488
									c0.244-0.119,0.458-0.262,0.607-0.434c0.707-3.985,1.414-7.97,2.12-11.955l-5.366,1.067L213.776,194.54z"/>
								<path style="fill:#08051A;" d="M213.984,193.37l1.565-8.827l4.84-0.785C219.232,186.994,216.833,191.51,213.984,193.37z"/>
							</g>
							<path style="fill:#E87578;" d="M221.423,182.151c-0.582,1.39-1.322,2.623-1.322,2.623c-0.234,0.273-0.485,0.631-0.697,1.082
								c-0.357,0.757-2.969,3.882-6.978,4.08c-0.637,0.032-2.648,0.104-4.524-1.152c0,0-0.959-0.642-1.714-1.662
								c-1.793-2.424-2.843-7.875-0.659-13.031c0.875-2.066,3.333-7.867,8.666-8.215c4.315-0.282,8.373,3.145,9.314,6.725
								C224.247,175.408,223.054,178.255,221.423,182.151z"/>
							
								<path style="fill:none;stroke:#08051A;stroke-width:0.5;stroke-linecap:round;stroke-linejoin:round;stroke-miterlimit:10;" d="
								M213.251,179.917c-0.227,0.493-0.865,0.749-1.369,0.55c-0.504-0.199-0.796-0.822-0.625-1.337"/>
							
								<path style="fill:none;stroke:#08051A;stroke-width:0.5;stroke-linecap:round;stroke-linejoin:round;stroke-miterlimit:10;" d="
								M205.021,177.775c0.035,0.541,0.54,1.009,1.082,1.003c0.542-0.005,1.037-0.483,1.062-1.024"/>
							<path style="fill:#08051A;" d="M207.02,182.458c1.028,0.441,2.232,0.456,3.27,0.04c-0.097,0.548-0.477,1.243-0.931,1.566
								c-0.454,0.323-1.078,0.419-1.585,0.188C207.267,184.021,206.926,183.007,207.02,182.458z"/>
							<path style="fill:#08051A;" d="M224.128,181.364c-1.746,0.115-4.087-0.155-4.693-0.23c-0.072-0.009-0.111-0.083-0.078-0.147
								c0.221-0.429,0.855-1.874,0.231-3.308c-0.343-0.789-0.809-0.683-1.063-1.414c-0.56-1.617,1.429-2.976,1.019-4.167
								c-0.233-0.678-1.231-1.066-3.889-1.391c-5.792-0.71-7.657,0.255-9.11-1.112c-1.521-1.432-1.098-4.018-1.009-4.563
								c0.476-2.911,3.037-5.575,5.298-5.454c2.077,0.111,2.066,2.585,5.017,4.874c4.611,3.576,9.177,1.129,10.762,3.964
								c0.693,1.24,0.03,3.778-1.295,8.853C224.864,179.012,224.429,180.427,224.128,181.364z"/>
							
								<path style="fill:none;stroke:#08051A;stroke-width:0.5;stroke-linecap:round;stroke-linejoin:round;stroke-miterlimit:10;" d="
								M208.692,177.441c0,0-0.337,1.579-0.388,2.187c-0.037,0.45-1.432,0.05-1.521,0.249c-0.089,0.199,0.649,0.766,1.264,1.189"/>
							<path style="fill:#E87578;" d="M220.081,181.429c-0.761,1.321-0.564,2.862,0.44,3.44c1.004,0.579,2.436-0.024,3.197-1.345
								c0.761-1.322,0.564-2.862-0.44-3.44C222.273,179.505,220.842,180.107,220.081,181.429z"/>
						</g>
						<path style="fill:#08051A;" d="M207.032,174.316c0.002,0.242-0.847,0.424-1.184,0.478c-0.339,0.054-1.199,0.144-1.273-0.088
							c-0.066-0.206,0.488-0.664,1.094-0.773C206.316,173.816,207.03,174.094,207.032,174.316z"/>
						<path style="fill:#08051A;" d="M212.25,176.369c-0.1,0.18,0.561,0.843,1.533,1.384c0.971,0.541,1.883,0.755,1.983,0.575
							c0.1-0.18-0.468-1.01-1.439-1.551C213.355,176.235,212.35,176.189,212.25,176.369z"/>
					</g>
				</g>
				<path style="fill:none;stroke:#08051A;stroke-width:0.5;stroke-linecap:round;stroke-linejoin:round;stroke-miterlimit:10;" d="
					M222.715,181.477c-0.687,0.223-1.264,0.764-1.529,1.436c0.13-0.124,0.346-0.148,0.5-0.056c0.155,0.093,0.236,0.294,0.188,0.468"
					/>
			</g>
			<g>
				<g>
					<path style="fill:#E87578;" d="M223.558,246.216l0.013,0.014c-0.114,0.124-0.221,0.258-0.314,0.405
						c-0.85,1.335-0.456,3.106,0.879,3.956c1.069,0.68,2.416,0.562,3.347-0.196l0.001,0.002l0.034-0.028
						c0.005-0.004,0.01-0.008,0.014-0.012l23.644-19.921c0.065-0.052,0.128-0.105,0.19-0.16l0.084-0.071l-0.004-0.004
						c0.28-0.262,0.535-0.558,0.75-0.896c1.375-2.16,0.738-5.026-1.422-6.401c-1.874-1.193-4.277-0.87-5.779,0.646l-0.002-0.002
						l-0.027,0.028c-0.01,0.01-0.02,0.021-0.029,0.031L223.558,246.216z"/>
					<path style="fill:#E87578;" d="M251.61,228.932c-1.176,1.847-3.627,2.392-5.474,1.216c-1.847-1.176-2.392-3.626-1.216-5.474
						c1.176-1.847,3.626-2.391,5.474-1.216C252.242,224.635,252.786,227.085,251.61,228.932z"/>
				</g>
				<path style="fill:#E87578;" d="M227.513,249.319c-0.668,1.05-2.061,1.359-3.111,0.691c-1.05-0.668-1.359-2.061-0.691-3.111
					c0.668-1.05,2.061-1.359,3.111-0.691C227.872,246.876,228.182,248.269,227.513,249.319z"/>
			</g>
			<g>
				<g>
					<path style="fill:#E87578;" d="M217.873,248.494c-0.029,0.049-0.055,0.101-0.078,0.157c-0.126,0.304-0.129,0.726,0.063,1.045
						c0.325,0.537,0.62,0.1,0.941,0.29c-0.257,0.115-0.443,0.373-0.664,0.556c-0.597,0.492-1.323,1.054-1.593,1.928
						c-0.121,0.391-0.103,0.838,0.116,1.249c0.146,0.274,0.329,0.484,0.57,0.6c0.272,0.13,0.595-0.036,0.846,0.169
						c0.144,0.118,0.21,0.333,0.313,0.505c0.196,0.326,0.559,0.491,0.83,0.377c0.179-0.075,0.331-0.258,0.533-0.211
						c0.202,0.047,0.346,0.3,0.51,0.479c0.56,0.611,1.076,0.203,1.464-0.195c0.144-0.148,0.591,0.709,1.515,0.306
						c0.895-0.391,1.462-1.379,2.182-2.047c0.689-0.639,1.356-1.499,1.677-2.521c0.355-1.133,0.192-2.701-0.661-3.635
						c-0.661-0.723-1.549-0.899-2.361-0.965c-2.042-0.166-4.098,0.144-5.694,1.381C218.19,248.107,218.003,248.272,217.873,248.494z
						"/>
				</g>
			</g>
			<g>
				<g>
					<path style="fill:#08051A;" d="M224.16,181.546c-0.218,2.042-1.774,3.55-3.475,3.369c-1.701-0.182-2.904-1.984-2.686-4.026
						c0.218-2.042,1.774-3.55,3.475-3.368C223.175,177.702,224.378,179.504,224.16,181.546z"/>
					<path style="fill:#454658;" d="M224.867,181.622c-0.218,2.042-1.774,3.55-3.475,3.369c-1.701-0.182-2.904-1.984-2.686-4.026
						c0.218-2.042,1.774-3.55,3.475-3.368C223.882,177.777,225.084,179.58,224.867,181.622z"/>
					<path style="fill:#454658;" d="M225.634,181.412c-0.135,1.262-1.096,2.194-2.148,2.082c-1.052-0.112-1.795-1.226-1.66-2.488
						c0.135-1.262,1.096-2.194,2.148-2.082C225.025,179.036,225.768,180.15,225.634,181.412z"/>
					<path style="fill:#454658;" d="M224.334,181.365c0.845-7.923-0.29-17.701-7.171-16.632c0,0,8.174,1.4,5.261,16.627
						L224.334,181.365z"/>
					
						<path style="fill:none;stroke:#08051A;stroke-width:0.5;stroke-linecap:round;stroke-linejoin:round;stroke-miterlimit:10;" d="
						M223.556,178.799c0.467-0.058,0.959,0.135,1.262,0.495"/>
					
						<path style="fill:none;stroke:#08051A;stroke-width:0.5;stroke-linecap:round;stroke-linejoin:round;stroke-miterlimit:10;" d="
						M222.49,179.251c-0.85,0.733-0.925,2.058-0.402,3.052c0.579,1.099,2.292,1.089,3.02,0.43"/>
				</g>
			</g>
		</g>
	</g>
	<g>
		<g>
			<g>
				<path style="fill:#381905;" d="M576.729,355.618l54.789,22.393c8.998,3.252,21.85-3.809,21.85-15.051V132.537
					c0-11.242-8-20.247-24.631-14.344l-52.008,21.687c-5.964,2.155-10.626,10.833-10.626,19.46v176.818
					C566.103,344.785,570.765,353.463,576.729,355.618z"/>
				<path style="fill:#454658;" d="M568.729,355.618l60.008,21.687c8.998,3.252,16.631-3.103,16.631-14.344V132.537
					c0-11.242-7.633-17.596-16.631-14.344l-60.008,21.687c-5.964,2.155-10.626,10.833-10.626,19.46v176.818
					C558.103,344.785,562.765,353.463,568.729,355.618z"/>
				<path style="fill:#381905;" d="M628.736,372.758c6.844,2.387,12.607-2.525,12.607-11.033V133.773
					c0-8.508-5.763-13.419-12.607-11.033l-60.007,20.926c-4.584,1.598-8.21,8.277-8.21,14.932V336.9
					c0,6.655,3.626,13.333,8.21,14.932L628.736,372.758z"/>
				<g>
					<path style="fill:#D5D7E6;" d="M568.729,145.938l6.4-2.183c0.799-0.273,1.45,0.44,1.45,1.592l0,0
						c0,3.273,1.864,5.339,4.195,4.605l32.008-10.081c2.881-0.908,5.253-4.667,5.253-8.383l0,0c0-1.308,0.843-2.656,1.888-3.013
						l8.815-3.007c5.58-1.904,10.233,2.117,10.233,9.034v226.493c0,6.917-4.653,10.937-10.233,9.034l-60.007-20.469
						c-3.761-1.283-6.741-6.736-6.741-12.209V158.147C561.988,152.674,564.968,147.221,568.729,145.938z"/>
					<polygon style="fill:#FFFFFF;" points="562.618,214.301 562.618,165.743 637.966,144.609 637.966,205.681 					"/>
					<polygon style="fill:#EEEDFB;" points="567.993,176.452 628.414,161.983 628.414,157.607 567.993,172.814 					"/>
					<polygon style="fill:#EEEDFB;" points="567.993,184.19 628.414,171.291 628.414,166.915 567.993,180.552 					"/>
					<polygon style="fill:#EEEDFB;" points="567.993,191.928 628.414,180.6 628.414,176.224 567.993,188.29 					"/>
					<polygon style="fill:#EEEDFB;" points="567.993,199.666 628.414,189.908 628.414,185.532 567.993,196.028 					"/>
					<polygon style="fill:#FFFFFF;" points="562.618,307.734 562.618,240.757 637.966,238.955 637.966,323.193 					"/>
					<polygon style="fill:#EEEDFB;" points="623.046,304.372 572.792,296.306 572.792,261.653 623.046,263.962 					"/>
					<polygon style="fill:#EEEDFB;" points="567.993,248.96 628.414,249.206 628.414,244.83 567.993,245.322 					"/>
					<polygon style="fill:#EEEDFB;" points="567.993,256.698 628.414,258.514 628.414,254.138 567.993,253.06 					"/>
				</g>
			</g>
			<path style="fill:#454658;" d="M651.128,201.643h2.99c0.831,0,1.505-0.674,1.505-1.505v-20.637c0-0.831-0.674-1.505-1.505-1.505
				h-2.99c-0.831,0-1.505,0.674-1.505,1.505v20.637C649.623,200.969,650.297,201.643,651.128,201.643z"/>
		</g>
		<g>
			<ellipse style="fill:#BFC9E2;" cx="546.563" cy="376.123" rx="25.633" ry="5.899"/>
			<g>
				<g>
					<path style="fill:#E87578;" d="M529.533,244.896c-2.185-0.141-3.843-2.026-3.702-4.211c0.141-2.185,2.026-3.843,4.211-3.702
						c2.185,0.141,3.843,2.026,3.702,4.211C533.604,243.379,531.719,245.037,529.533,244.896z"/>
					<path style="fill:#E87578;" d="M537.521,215.906c-3.367-0.217-5.922-3.122-5.705-6.489c0.217-3.367,3.122-5.922,6.49-5.705
						c3.367,0.217,5.922,3.122,5.705,6.489C543.794,213.568,540.888,216.122,537.521,215.906z"/>
					<path style="fill:#E87578;" d="M531.234,208.385l-6.074,32.279c-0.164,2.555,1.774,4.76,4.329,4.925
						c2.015,0.13,3.812-1.049,4.562-2.806l-0.001,0.004l0.004-0.011c0.045-0.106,0.088-0.214,0.125-0.324
						c0.033-0.098,0.054-0.201,0.081-0.302l10.357-30.304c1.886-5.61-3.099-8.862-6.207-9.062
						C534.904,202.558,531.846,205.011,531.234,208.385z"/>
				</g>
				<g>
					<g>
						<path style="fill:#E87578;" d="M517.026,269.653l0.018,0.006c-0.043,0.163-0.075,0.331-0.089,0.505
							c-0.127,1.578,1.049,2.959,2.627,3.086c1.263,0.102,2.398-0.633,2.867-1.739l0.002,0.001l0.016-0.04
							c0.002-0.006,0.005-0.012,0.007-0.018l11.584-28.664c0.033-0.076,0.064-0.152,0.093-0.23l0.041-0.102l-0.005-0.002
							c0.125-0.362,0.212-0.743,0.244-1.142c0.205-2.552-1.697-4.788-4.25-4.993c-2.214-0.178-4.188,1.231-4.807,3.273l-0.002-0.001
							l-0.01,0.037c-0.004,0.014-0.008,0.027-0.011,0.041L517.026,269.653z"/>
						<g>
							<g>
								<path style="fill:#E87578;" d="M514.192,276.155c0.021,0.053,0.045,0.106,0.074,0.159c0.159,0.288,0.488,0.553,0.857,0.601
									c0.623,0.08,0.464-0.423,0.812-0.556c-0.07,0.272,0.016,0.579,0.021,0.866c0.013,0.774,0.002,1.692,0.517,2.446
									c0.231,0.338,0.592,0.602,1.05,0.686c0.305,0.056,0.584,0.044,0.824-0.073c0.271-0.132,0.342-0.488,0.659-0.557
									c0.182-0.039,0.392,0.043,0.591,0.07c0.377,0.049,0.732-0.132,0.811-0.415c0.052-0.187,0.004-0.42,0.166-0.548
									c0.163-0.129,0.45-0.084,0.692-0.101c0.827-0.058,0.829-0.716,0.758-1.267c-0.026-0.204,0.922-0.021,1.182-0.995
									c0.252-0.944-0.169-2.003-0.244-2.982c-0.071-0.938-0.329-1.994-0.93-2.881c-0.666-0.983-1.995-1.832-3.256-1.745
									c-0.977,0.067-1.668,0.653-2.225,1.248c-1.401,1.495-2.438,3.297-2.463,5.316
									C514.086,275.666,514.099,275.915,514.192,276.155z"/>
							</g>
						</g>
						<path style="fill:#E87578;" d="M529.533,244.896c-2.185-0.141-3.843-2.026-3.702-4.211c0.141-2.185,2.026-3.843,4.211-3.702
							c2.185,0.141,3.843,2.026,3.702,4.211C533.604,243.379,531.719,245.037,529.533,244.896z"/>
					</g>
				</g>
			</g>
			<g>
				<g>
					<path style="fill:#E87578;" d="M589.049,231.449c1.515-1.581,1.461-4.091-0.121-5.606c-1.581-1.515-4.091-1.461-5.606,0.121
						c-1.515,1.581-1.461,4.091,0.121,5.606C585.024,233.084,587.534,233.03,589.049,231.449z"/>
					<path style="fill:#E87578;" d="M563.56,215.494c2.334-2.437,2.251-6.304-0.186-8.639c-2.437-2.334-6.304-2.251-8.639,0.186
						c-2.334,2.437-2.251,6.304,0.186,8.639C557.358,218.014,561.225,217.931,563.56,215.494z"/>
					<path style="fill:#E87578;" d="M563.105,205.702l26.303,19.671c1.849,1.771,1.912,4.706,0.141,6.556
						c-1.397,1.458-3.517,1.805-5.258,1.018l0.004,0.003l-0.01-0.006c-0.105-0.048-0.209-0.098-0.311-0.154
						c-0.091-0.05-0.176-0.112-0.264-0.168l-28.122-15.32c-5.184-2.857-3.71-8.624-1.556-10.873
						C556.461,203.892,560.373,203.631,563.105,205.702z"/>
				</g>
				<g>
					<g>
						<path style="fill:#E87578;" d="M599.167,200.092l0.016,0.009c0.093-0.14,0.198-0.276,0.319-0.402
							c1.095-1.143,2.909-1.182,4.052-0.087c0.915,0.876,1.12,2.213,0.605,3.298l0.002,0.001l-0.019,0.039
							c-0.003,0.005-0.005,0.011-0.008,0.017l-13.728,27.702c-0.035,0.075-0.071,0.149-0.11,0.223l-0.049,0.098l-0.005-0.003
							c-0.188,0.334-0.415,0.652-0.692,0.941c-1.771,1.849-4.706,1.912-6.555,0.141c-1.604-1.536-1.862-3.948-0.747-5.767
							l-0.002-0.001l0.021-0.033c0.007-0.012,0.015-0.024,0.023-0.036L599.167,200.092z"/>
						<path style="fill:#E87578;" d="M589.049,231.449c1.515-1.581,1.461-4.091-0.121-5.606c-1.581-1.515-4.091-1.461-5.606,0.121
							c-1.515,1.581-1.461,4.091,0.121,5.606C585.024,233.084,587.534,233.03,589.049,231.449z"/>
					</g>
					<path style="fill:#E87578;" d="M603.121,203.196c0.861-0.899,0.83-2.325-0.069-3.186c-0.899-0.861-2.325-0.83-3.186,0.069
						c-0.861,0.899-0.83,2.325,0.069,3.186C600.834,204.125,602.26,204.094,603.121,203.196z"/>
				</g>
			</g>
			<g>
				<g>
					<g>
						<g>
							<g>
								<g>
									<path style="fill:#E87578;" d="M552.597,264.614c0,0-2.221,45.587-5.151,58.705c-1.662,7.443-11.96-0.837-11.297-4.737
										c0.663-3.899-4.553-55.562-1.268-57.96c1.342-0.98,2.902-1.064,4.46-1.129
										C545.598,259.233,550.471,262.807,552.597,264.614z"/>
									<path style="fill:#E87578;" d="M534.487,327.441c0.592-6.293,2.071-12.179,3.975-14.63
										c1.673-2.155,8.191-2.266,8.708,1.063c1.668,7.268-4.323,38.928-4.533,45.393c-0.104,3.203,0.497,4.273-1.875,4.863
										c-2.371,0.59-3.937-0.755-3.937-0.755c-1.122-1.629-0.563-3.857-0.751-6.375
										C535.888,354.482,533.895,333.733,534.487,327.441z"/>
								</g>
								<path style="fill:#454658;" d="M535.095,370.077c0.809,5.518,3.627,9.44,6.347,9.277c4.361-0.262,3.273-6.21,2.464-11.729
									c-0.809-5.519-2.697-8.651-5.393-8.256C535.816,359.764,534.286,364.559,535.095,370.077z"/>
								<path style="fill:#E87578;" d="M542.624,360.284c-0.013,3.704,1.202,8.818,1.169,10.294c-0.07,3.162-5.816,3.66-7.466-0.047
									c-0.528-1.186-0.887-6.356-0.069-10.444C537.076,356,542.624,360.284,542.624,360.284z"/>
							</g>
							<path style="fill:#00667C;" d="M535.907,317.869c-0.788,2.73-1.38,6.028-1.711,9.544c-0.511,5.425,0.673,19.022,1.198,25.067
								c0.004,0.051,0.11,1.277,0.177,2.051c0.032,0.377,0.287,0.706,0.652,0.806c2.096,0.577,4.405,0.508,6.535-0.079
								c0.354-0.098,0.608-0.405,0.655-0.77c0.312-2.41,0.742-5.386,1.208-8.6c1.011-6.982,2.156-14.893,2.747-21.392
								c0.154-0.352,0.272-0.717,0.362-1.115c2.901-12.992,5.135-58.298,5.157-58.755l0.007-0.143l-0.109-0.093
								c-2.941-2.501-7.659-5.435-13.458-5.19c-1.491,0.063-3.18,0.134-4.62,1.185c-2.122,1.549-1.099,19.669,0.346,41.408
								C535.546,309.2,535.971,315.6,535.907,317.869z"/>
						</g>
						<g>
							<g>
								<g>
									<path style="fill:#E87578;" d="M552.765,266.77c0,0-0.849,45.633,1.193,58.918c1.158,7.538,11.989-0.031,11.59-3.966
										c-0.399-3.935,8.278-55.131,5.162-57.743c-1.274-1.068-2.824-1.256-4.374-1.426
										C560.11,261.871,555.008,265.11,552.765,266.77z"/>
									<path style="fill:#E87578;" d="M566.61,330.672c-0.168-6.318-1.248-12.291-2.982-14.864
										c-1.524-2.262-8.02-2.811-8.76,0.475c-2.153,7.14,1.696,39.131,1.471,45.595c-0.112,3.203-0.783,4.23,1.544,4.978
										c2.326,0.748,3.979-0.489,3.979-0.489c1.229-1.55,0.821-3.81,1.177-6.31C563.395,357.558,566.778,336.99,566.61,330.672z"
										/>
								</g>
								<path style="fill:#454658;" d="M563.137,373.171c-1.178,5.452-4.253,9.175-6.956,8.829
									c-4.334-0.555-2.848-6.416-1.67-11.868c1.178-5.452,3.272-8.45,5.936-7.875C563.11,362.833,564.315,367.719,563.137,373.171
									z"/>
								<path style="fill:#E87578;" d="M556.284,362.894c-0.236,3.697-1.792,8.717-1.859,10.192
									c-0.142,3.16,5.557,4.043,7.453,0.455c0.606-1.148,1.313-6.282,0.771-10.415
									C562.107,358.992,556.284,362.894,556.284,362.894z"/>
							</g>
							<path style="fill:#00667C;" d="M565.836,321.027c0.603,2.776,0.972,6.107,1.065,9.637c0.145,5.447-1.95,18.934-2.881,24.93
								c-0.008,0.05-0.196,1.267-0.315,2.035c-0.058,0.374-0.334,0.685-0.705,0.76c-2.13,0.435-4.429,0.21-6.515-0.518
								c-0.347-0.121-0.579-0.445-0.602-0.812c-0.149-2.426-0.379-5.423-0.627-8.661c-0.539-7.034-1.15-15.004-1.303-21.528
								c-0.13-0.361-0.224-0.734-0.286-1.136c-2.021-13.158-1.204-58.512-1.195-58.968l0.003-0.143l0.115-0.086
								c3.103-2.298,8.007-4.908,13.776-4.273c1.483,0.163,3.164,0.347,4.53,1.493c2.013,1.688-0.226,19.698-3.129,41.291
								C566.78,312.401,565.925,318.758,565.836,321.027z"/>
						</g>
						<path style="fill:#00667C;" d="M570.809,277.619c0.009-0.122,0.018-0.245,0.027-0.367c0.118-1.609,0.2-3.222,0.241-4.835
							c0.046-1.82,0.041-3.642-0.033-5.462c-0.038-0.94-0.095-1.879-0.174-2.817c-0.02-0.234-0.041-0.469-0.064-0.703
							c-0.019-0.194-0.009-0.409-0.074-0.593c-0.124-0.35-0.412-0.612-0.543-0.958c-0.145-0.384-0.075-0.811,0.002-1.214
							c0.062-0.32,0.129-0.65,0.088-0.978c-0.037-0.3-0.089-0.595-0.149-0.893c-0.129-0.636-0.275-1.269-0.441-1.897
							c-0.427-1.611-0.987-3.201-1.779-4.672c-0.133-0.247-0.409-0.378-0.686-0.333c-4.142,0.674-9.9,1.978-15.287,1.937
							c-5.539-0.041-10.459-0.582-14.602-1.285c-0.221-0.037-0.442,0.035-0.593,0.201c-1.109,1.219-5.244,7.131-2.677,25.258
							L570.809,277.619z"/>
						
							<path style="fill:none;stroke:#08051A;stroke-width:0.5;stroke-linecap:round;stroke-linejoin:round;stroke-miterlimit:10;" d="
							M554.724,260.444c0,0,0.328,15.454,0.004,15.974c-0.324,0.519-2.052,0.538-2.052,0.538"/>
						
							<line style="fill:none;stroke:#08051A;stroke-width:0.5;stroke-linecap:round;stroke-linejoin:round;stroke-miterlimit:10;" x1="552.694" y1="275.513" x2="552.54" y2="261.019"/>
						<g>
							<path style="fill:#08051A;" d="M539,199.524c1.58-2.497-0.561-4.753-1.053-10.08c-0.245-2.645-0.766-8.284,2.561-12.32
								c4.049-4.912,11.258-4.367,12.778-4.204c2.193,0.235,5.285,0.567,6.928,2.833c1.725,2.38,0.173,4.579,2.257,7.522
								c1.572,2.221,3.235,2.071,3.46,3.761c0.283,2.129-2.015,4.911-2.313,5.266c-0.623,0.74-1.2,1.217-1.314,2.116
								c-0.138,1.085,0.5,1.98,0.887,2.535c1,1.439,3.225,4.64,4.001,7.061c0.068,0.213,1.037,3.332,0.094,5.138
								c-1.647,3.156-9.613,3.223-19.576-0.017c-10.373,2.229-13.719,1.111-14.657-0.563c-0.889-1.585,0.676-4.252,0.818-4.502
								C535.458,201.28,537.696,201.586,539,199.524z"/>
							<path style="fill:#DBDBDB;" d="M561.433,201.156c0,0,8.336,7.049,11.864,10.829c0,0,1.886,0.674,2.64,2.276
								s-4.14,10.536-6.253,10.969c-2.113,0.433-2.521-0.817-2.521-0.817s-7.896-1.132-13.436-6.408
								C548.186,212.728,561.433,201.156,561.433,201.156z"/>
							<path style="fill:#DBDBDB;" d="M535.879,202.926c0,0-6.091-1.058-7.88,16.159c0,0-1.257,2.65-0.805,4.363
								c0.452,1.712,9.943,5.411,11.84,4.385c1.897-1.026,1.406-2.247,1.406-2.247s5.322-5.941,6.176-13.544
								C547.47,204.439,535.879,202.926,535.879,202.926z"/>
							<path style="fill:#DBDBDB;" d="M569.063,221.749c0.052-2.062-0.689-3.876-3.294-5.115c-0.949-0.451-2.153-0.522-3.001,0.098
								c-1.157,0.846-1.215,2.521-1.162,3.953c0.279,7.497,0.735,15.516,5.252,21.505c0.015-5.356,0.078-11.397,1.504-16.596
								C568.725,224.271,569.032,222.967,569.063,221.749z"/>
							<path style="fill:#DBDBDB;" d="M565.243,204.889c-0.353-3.653-9.591-7.055-18.251-5.684c-8.14,1.288-13.553,3.868-13.2,7.52
								c0.794,2.019,1.304,3.852,1.551,5.727c0.356,2.696,0.112,4.758,0.046,5.389c-0.438,4.178,0.892,8.26,1.31,12.381
								c0.436,4.297,0.682,8.459-0.155,12.759c-0.244,1.254-5.336,18.375-4.369,19.308c4.966,4.794,36.669,2.104,39.177-2.471
								c2.46-4.487-1.442-9.754-4.345-21.179C563.601,225.241,564.105,213.352,565.243,204.889z"/>
							
								<path style="fill:none;stroke:#08051A;stroke-width:0.5;stroke-linecap:round;stroke-linejoin:round;stroke-miterlimit:10;" d="
								M563.819,210.161c0.123,1.462,0.365,2.879,1.112,4.129c0.856,1.433,2.232,2.468,3.138,3.858
								c0.974,1.493,1.258,3.024,0.993,4.796c-0.76,5.087-2.851,10.016-2.055,15.697"/>
							<path style="fill:#E87578;" d="M547.783,199.721l2.538-0.235c5.312-0.975,8.99,5.391,7.524,9.118
								C556.381,212.333,542.31,203.823,547.783,199.721z"/>
						</g>
						
							<path style="fill:none;stroke:#08051A;stroke-width:0.5;stroke-linecap:round;stroke-linejoin:round;stroke-miterlimit:10;" d="
							M539.541,270.298c0,0,0.988,5.854-4.862,4.974"/>
						
							<path style="fill:none;stroke:#08051A;stroke-width:0.5;stroke-linecap:round;stroke-linejoin:round;stroke-miterlimit:10;" d="
							M566.166,268.436c0,0-0.843,4.908,3.674,4.436"/>
					</g>
					<g>
						<g>
							<g>
								<g>
									<polygon style="fill:#E87578;" points="552.719,200.473 548.061,201.868 544.737,190.773 549.939,191.194 									"/>
									<path style="fill:#08051A;" d="M552.393,199.386l-1.847-8.141l-5.28-0.263
										C546.718,193.922,549.488,197.938,552.393,199.386z"/>
								</g>
								<path style="fill:#E87578;" d="M544.823,191.326c0,0,0.612,0.65,1.607,1.536c2.751,2.447,7.792,4.639,11.624,1.944
									c5.22-3.671,1.727-18.051-1.309-20.113C549.715,169.917,538.604,177.6,544.823,191.326z"/>
								<path style="fill:#08051A;" d="M556.61,188.745c0.254-0.159,0.552-0.317,0.839-0.231c0.266,0.08,0.433,0.352,0.49,0.623
									c0.139,0.656-0.291,1.384-0.935,1.572c-0.52,0.152-1.313-0.091-1.521-0.639C555.238,189.423,556.175,189.018,556.61,188.745
									z"/>
								<path style="fill:#08051A;" d="M541.459,189.126c0.862,0.277,3.291,1.299,4.177,0.536c0.249-0.214,0.153-0.352,0.148-0.646
									c-0.009-0.544,0.019-1.071,0.144-1.603c0.283-1.206,0.982-2.282,1.919-3.086c1.48-1.27,3.403-1.839,4.918-3.057
									c1.126-0.905,1.963-2.14,2.504-3.479c0.604-1.495,0.842-3.218,0.237-4.713c-1.405-3.477-5.571-2.358-8.237-1.235
									c-0.972,0.409-5.628,2.521-7.123,7.848C538.783,184.543,541.057,188.459,541.459,189.126z"/>
								
									<path style="fill:none;stroke:#08051A;stroke-width:0.5;stroke-linecap:round;stroke-linejoin:round;stroke-miterlimit:10;" d="
									M555.656,184.709c0,0,0.178,2.001,0.608,2.03c0.43,0.029,1.199-0.57,1.305-0.391c0.106,0.179-0.285,0.981-0.933,1.28"/>
								<path style="fill:#E87578;" d="M546.32,189.493c0.867,1.169,0.849,2.65-0.039,3.309c-0.888,0.659-2.311,0.245-3.178-0.923
									c-0.867-1.169-0.849-2.65,0.039-3.309C544.031,187.911,545.453,188.324,546.32,189.493z"/>
								
									<path style="fill:none;stroke:#08051A;stroke-width:0.5;stroke-linecap:round;stroke-linejoin:round;stroke-miterlimit:10;" d="
									M543.538,189.813c1.048-0.371,2.059,1.38,1.671,2.128c0,0-0.246-0.874-0.694-0.529s0.203,0.677,0.203,0.677"/>
							</g>
						</g>
						<path style="fill:#08051A;" d="M551.354,183.493c0.206,0.205-0.354,0.706-1.007,1.361c-0.653,0.655-0.975,1.393-1.18,1.188
							c-0.206-0.205-0.02-1.078,0.633-1.734C550.452,183.653,551.148,183.288,551.354,183.493z"/>
						<path style="fill:#08051A;" d="M557.227,181.307c-0.016,0.271,0.685,0.273,1.548,0.325c0.862,0.052,1.545,0.367,1.562,0.096
							c0.016-0.271-0.655-0.765-1.518-0.817C557.956,180.859,557.243,181.036,557.227,181.307z"/>
						
							<path style="fill:none;stroke:#08051A;stroke-width:0.5;stroke-linecap:round;stroke-linejoin:round;stroke-miterlimit:10;" d="
							M551.212,186.662c0.022-0.283,0.189-0.551,0.434-0.694c0.245-0.143,0.56-0.157,0.817-0.037"/>
						
							<path style="fill:none;stroke:#08051A;stroke-width:0.5;stroke-linecap:round;stroke-linejoin:round;stroke-miterlimit:10;" d="
							M557.936,184.333c0.123-0.164,0.251-0.332,0.428-0.437c0.177-0.105,0.416-0.132,0.581-0.01"/>
						<path style="fill:#08051A;" d="M544.686,188.25c1.097,0.468,1.408,2.88,1.502,3.716c0.093,0.836,1.082-0.085,0.468-2.525
							c-0.615-2.44-0.444-3.554,0.853-4.803c1.297-1.249-4.711-1.444-4.711-1.444"/>
					</g>
					
						<path style="fill:none;stroke:#08051A;stroke-width:0.5;stroke-linecap:round;stroke-linejoin:round;stroke-miterlimit:10;" d="
						M540.518,207.792c-0.123,1.462-0.365,2.879-1.112,4.129c-0.856,1.433-2.231,2.468-3.138,3.858
						c-0.974,1.493-1.258,3.024-0.994,4.796c0.76,5.087,2.091,10.002,1.743,15.221"/>
				</g>
			</g>
			<g>
				<path style="fill:#E87578;" d="M603.681,191.594c0.697,0.338,1.029,1.224,0.974,2.309c1.396-0.696,2.836-1.305,4.297-1.849
					c0.553-0.206,1.741-0.877,2.354-0.768c1.065,0.189,0.504,1.441,0.004,1.876c-0.262,0.228-1.752,1.358-2.077,1.262
					c0.189,0.056,0.503-0.005,0.689,0.546c0.046,0.416-0.015,0.59-0.08,1.021c-0.174,0.358-0.796,0.473-0.939,0.482
					c-0.233,0.015,0.673,0.784,0.42,1.332c-0.31,0.486-1.262,0.799-1.52,0.912c-0.219,0.096,0.282,0.841-0.632,1.648
					c-0.842,0.599-1.886,1.095-3.124,1.449l-0.932,0.59c-2.536,0.151-2.731-1.411-3.458-3.542c-0.127-0.371-0.085-0.752,0.078-1.136
					c0.175-0.729,0.809-1.721,1.385-2.91C602.088,192.82,602.521,191.031,603.681,191.594z"/>
				<g>
					
						<path style="fill:none;stroke:#08051A;stroke-width:0.5;stroke-linecap:round;stroke-linejoin:round;stroke-miterlimit:10;" d="
						M609.423,194.281c0,0-3.934,1.216-4.02,1.714c-0.086,0.499-0.155,1.434,2.888,0.496"/>
					
						<path style="fill:none;stroke:#08051A;stroke-width:0.5;stroke-linecap:round;stroke-linejoin:round;stroke-miterlimit:10;" d="
						M606.3,196.891c0,0-2.113,0.552-2.078,1.592c0.035,1.04,3.581,0.233,3.581,0.233"/>
					
						<path style="fill:none;stroke:#08051A;stroke-width:0.5;stroke-linecap:round;stroke-linejoin:round;stroke-miterlimit:10;" d="
						M606.213,198.972c0,0-2.223,0.526-2.046,1.259c0.176,0.734,2.768,0.078,2.768,0.078"/>
				</g>
			</g>
			<g>
				
					<line style="fill:none;stroke:#08051A;stroke-width:0.4399;stroke-linecap:round;stroke-linejoin:round;stroke-miterlimit:10;" x1="544.416" y1="181.68" x2="546.959" y2="182.223"/>
			</g>
		</g>
	</g>
	<g>
		<ellipse style="fill:#BFC9E2;" cx="432.199" cy="371.744" rx="34.824" ry="8.015"/>
		<g>
			<g>
				<path style="fill:#454658;" d="M387.426,210.927l-4.308-0.621c-0.272-0.039-0.475-0.273-0.475-0.548v-13.665
					c0-0.275,0.202-0.508,0.475-0.548l4.308-0.621V210.927z"/>
				<path style="fill:#381905;" d="M383.496,195.631c-0.269,0.039-0.469,0.27-0.469,0.541v2.367l0,0
					c1.192,0,2.159,0.967,2.159,2.159v4.682c0,1.192-0.967,2.159-2.159,2.159l0,0v2.14c0,0.272,0.2,0.503,0.469,0.541l4.258,0.614
					v-15.819L383.496,195.631z"/>
			</g>
			<g>
				<path style="fill:#454658;" d="M490.684,210.927l4.308-0.621c0.272-0.039,0.474-0.273,0.474-0.548v-13.665
					c0-0.275-0.202-0.508-0.474-0.548l-4.308-0.621V210.927z"/>
				<path style="fill:#381905;" d="M494.613,195.631c0.269,0.039,0.469,0.27,0.469,0.541v2.367l0,0
					c-1.193,0-2.159,0.967-2.159,2.159v4.682c0,1.192,0.967,2.159,2.159,2.159l0,0v2.14c0,0.272-0.2,0.503-0.469,0.541l-4.259,0.614
					v-15.819L494.613,195.631z"/>
			</g>
			<g>
				<path style="fill:#454658;" d="M387.426,229.689l-4.308-0.621c-0.272-0.039-0.475-0.273-0.475-0.548v-13.664
					c0-0.275,0.202-0.508,0.475-0.548l4.308-0.621V229.689z"/>
				<path style="fill:#381905;" d="M383.496,214.393c-0.269,0.039-0.469,0.27-0.469,0.541v2.367l0,0
					c1.192,0,2.159,0.967,2.159,2.159v4.682c0,1.193-0.967,2.159-2.159,2.159l0,0v2.14c0,0.272,0.2,0.503,0.469,0.541l4.258,0.614
					v-15.819L383.496,214.393z"/>
			</g>
			<g>
				<path style="fill:#454658;" d="M387.426,190.602l-4.308-0.621c-0.272-0.039-0.475-0.273-0.475-0.548v-9.756
					c0-0.275,0.202-0.509,0.475-0.548l4.308-0.621V190.602z"/>
				<path style="fill:#381905;" d="M383.496,179.214c-0.269,0.039-0.469,0.27-0.469,0.542v2.367l0,0
					c1.192,0,2.159,0.967,2.159,2.159v0.773c0,1.192-0.967,2.159-2.159,2.159l0,0v2.14c0,0.272,0.2,0.503,0.469,0.541l4.258,0.614
					V178.6L383.496,179.214z"/>
			</g>
			<path style="fill:#454658;" d="M476.957,361.62h-75.819c-9.234,0-16.72-7.486-16.72-16.72V155.622
				c0-9.234,7.486-16.72,16.72-16.72h75.819c9.234,0,16.72,7.486,16.72,16.72v189.277
				C493.677,354.134,486.191,361.62,476.957,361.62z"/>
			<path style="fill:#381905;" d="M388.326,344.899V155.623c0-7.076,5.736-12.812,12.812-12.812h75.819
				c7.076,0,12.812,5.736,12.812,12.812v189.276c0,7.076-5.736,12.812-12.812,12.812h-75.819
				C394.062,357.711,388.326,351.975,388.326,344.899z"/>
			<g>
				<path style="fill:#D5D7E6;" d="M476.957,145.156h-9.508c-1.159,0-2.099,0.94-2.099,2.099v0c0,3.292-2.669,5.961-5.961,5.961
					h-40.684c-3.292,0-5.962-2.669-5.962-5.961v0c0-1.159-0.94-2.099-2.099-2.099h-9.507c-5.78,0-10.466,4.686-10.466,10.466
					v189.276c0,5.78,4.686,10.466,10.466,10.466h75.819c5.78,0,10.466-4.686,10.466-10.466V155.622
					C487.423,149.842,482.737,145.156,476.957,145.156z"/>
				<rect x="391.671" y="163.833" style="fill:#FFFFFF;" width="94.752" height="51.176"/>
				<rect x="401.477" y="172.71" style="fill:#EEEDFB;" width="76.6" height="3.765"/>
				<rect x="401.477" y="180.719" style="fill:#EEEDFB;" width="76.6" height="3.765"/>
				<rect x="401.477" y="188.727" style="fill:#EEEDFB;" width="76.6" height="3.765"/>
				<rect x="401.477" y="196.735" style="fill:#EEEDFB;" width="76.6" height="3.765"/>
				<rect x="391.671" y="242.892" style="fill:#FFFFFF;" width="94.752" height="70.588"/>
				<rect x="407.221" y="264.421" style="fill:#EEEDFB;" width="63.653" height="35.294"/>
				<rect x="401.477" y="247.749" style="fill:#EEEDFB;" width="76.6" height="3.765"/>
				<rect x="401.477" y="255.757" style="fill:#EEEDFB;" width="76.6" height="3.765"/>
			</g>
		</g>
		<g>
			<g>
				<g>
					<g>
						<g>
							<g>
								<path style="fill:#08051A;" d="M444.123,371.777c0.053,0.156-0.02,2.345,0.187,2.578c0.206,0.232,4.534,0.448,6.07,0.302
									c1.702-0.162,3.436-0.432,5.068-0.949c0.341-0.108,0.678-0.229,1.003-0.379c0.299-0.138,0.65-0.269,0.833-0.547
									c0.53-0.804,0.654-1.874,0.318-2.776"/>
							</g>
						</g>
						<g>
							<g>
								<path style="fill:#FFFFFF;" d="M457.287,369.308c0.139,0.221,0.352,0.513,0.311,0.792c-0.038,0.26-0.266,0.543-0.482,0.676
									c-0.011,0.007-0.021,0.013-0.032,0.02c-0.833,0.499-1.977,0.672-2.915,0.851c-1.309,0.251-2.639,0.405-3.971,0.458
									c-3.543,0.141-5.808,0.242-6.021-0.172c-0.213-0.415,0.152-0.995,0.152-0.995L457.287,369.308z"/>
							</g>
						</g>
						<g>
							<g>
								<g>
									<path style="fill:#E87578;" d="M446.289,366.382c-0.252-0.495-0.286-1.09-0.272-1.724
										c0.082-3.755-0.381-7.522-1.373-11.151c-0.478-1.75-1.081-3.478-1.325-5.273c-0.157-1.153-0.417-4.167,0.723-4.987
										c0.621-0.446,2.351-0.117,3.085-0.077c1.219,0.067,2.439,0.164,3.652,0.3c0.468,0.053,1.612,0.005,1.991,0.341
										c0.262,0.235,0.008,1.653-0.007,1.952c-0.074,1.528-0.184,3.054-0.294,4.58c-0.281,3.886-1.043,7.988-0.532,11.869
										c0.111,0.842,0.278,1.677,0.501,2.497c0.227,0.835,0.497,1.781,0.042,2.516c-0.444,0.719-1.405,0.915-2.249,0.882
										c-1.131-0.044-2.305-0.374-3.262-0.988C446.65,366.915,446.434,366.665,446.289,366.382z"/>
								</g>
							</g>
						</g>
						<g>
							<g>
								<path style="fill:#454658;" d="M444.408,368.273c0.034-0.619,0.069-1.246,0.267-1.833c0.198-0.587,0.582-1.139,1.145-1.399
									c0.793-0.367,1.734-0.083,2.508,0.323c0.775,0.405,1.511,0.937,2.372,1.087c0.358,0.063,0.739,0.053,1.066-0.105
									c0.529-0.256,0.818-0.86,0.86-1.447c0.042-0.586-0.121-1.166-0.283-1.731c0.157-0.027,0.314-0.053,0.471-0.08
									c-0.111,0.019,0.023,1.126,0.043,1.24c0.081,0.472,0.257,0.886,0.429,1.328c0.301,0.777,0.526,1.411,1.227,1.946
									c0.599,0.456,1.305,0.744,1.991,1.052c0.319,0.144,0.665,0.324,0.783,0.654c0.135,0.382-0.114,0.814-0.461,1.022
									c-0.385,0.231-0.959,0.369-1.393,0.514c-0.638,0.213-1.413,0.195-2.08,0.252c-1.482,0.126-2.967,0.202-4.453,0.255
									c-0.943,0.034-1.887,0.059-2.83,0.082c-0.556,0.014-1.507,0.176-1.742-0.496c-0.119-0.34-0.022-0.801-0.003-1.148
									C444.353,369.284,444.381,368.779,444.408,368.273z"/>
							</g>
						</g>
						<g>
							<g>
								<path style="fill:#08051A;" d="M452.006,371.314c-0.077-0.006-0.14-0.067-0.148-0.146c-0.104-1.068-0.78-2.135-1.809-2.853
									c-0.846-0.59-1.93-0.983-3.314-1.198c-0.392-0.062-0.849-0.118-1.271-0.005c-0.421,0.113-0.75,0.404-0.836,0.747
									c-0.021,0.086-0.099,0.138-0.196,0.116c-0.086-0.022-0.138-0.109-0.116-0.196c0.114-0.453,0.533-0.838,1.067-0.98
									c0.479-0.127,0.975-0.066,1.403-0.002c1.434,0.224,2.562,0.635,3.448,1.254c1.106,0.771,1.834,1.924,1.945,3.087
									c0.008,0.088-0.056,0.168-0.145,0.176C452.025,371.314,452.015,371.314,452.006,371.314z"/>
							</g>
						</g>
						<g>
							<g>
								<path style="fill:#08051A;" d="M446.042,366.946c-0.068-0.005-0.128-0.053-0.145-0.123
									c-0.156-0.646-0.124-1.346,0.089-1.972c0.028-0.084,0.114-0.135,0.205-0.1c0.084,0.028,0.13,0.12,0.1,0.205
									c-0.194,0.568-0.222,1.205-0.08,1.79c0.021,0.088-0.033,0.175-0.119,0.196C446.075,366.946,446.059,366.947,446.042,366.946
									z"/>
							</g>
						</g>
						<g>
							<g>
								<path style="fill:#08051A;" d="M446.506,367.014c-0.077-0.006-0.14-0.065-0.148-0.144c-0.068-0.663-0.032-1.329,0.109-1.98
									c0.019-0.087,0.104-0.145,0.192-0.124c0.087,0.019,0.142,0.105,0.124,0.192c-0.134,0.618-0.168,1.251-0.103,1.88
									c0.01,0.089-0.055,0.168-0.144,0.177C446.525,367.014,446.515,367.015,446.506,367.014z"/>
							</g>
						</g>
						<g>
							<g>
								<path style="fill:#FFFFFF;" d="M444.966,372.724c-0.121-0.012-0.077,0.939,0.012,1.129s2.644,0.32,2.747,0.198
									c0.103-0.123,0.229-1.375,0.09-1.356C447.676,372.713,445.453,372.771,444.966,372.724z"/>
							</g>
						</g>
						<g>
							<g>
								<path style="fill:#08051A;" d="M453.369,366.839c-0.081,0.166-0.201,0.311-0.279,0.478c-0.078,0.167-0.107,0.375-0.006,0.53
									c0.126,0.193,0.417,0.222,0.616,0.106c0.199-0.116,0.314-0.337,0.368-0.561c0.113-0.464-0.016-0.973-0.312-1.344
									c-0.152-0.191-0.392-0.418-0.309-0.033C453.507,366.295,453.497,366.578,453.369,366.839z"/>
							</g>
						</g>
						<g>
							<g>
								<path style="fill:#08051A;" d="M454.303,367.861c-0.05,0.102-0.124,0.192-0.172,0.296c-0.048,0.104-0.066,0.232-0.004,0.328
									c0.078,0.119,0.258,0.137,0.381,0.065c0.123-0.071,0.194-0.209,0.228-0.347c0.07-0.287-0.01-0.601-0.193-0.831
									c-0.094-0.118-0.242-0.259-0.191-0.02C454.389,367.525,454.383,367.699,454.303,367.861z"/>
							</g>
						</g>
						<g>
							<g>
								<path style="fill:#08051A;" d="M454.996,368.398c-0.031,0.063-0.077,0.119-0.106,0.183c-0.03,0.064-0.041,0.143-0.002,0.203
									c0.048,0.073,0.159,0.085,0.235,0.04c0.076-0.044,0.12-0.129,0.141-0.214c0.043-0.177-0.006-0.372-0.119-0.514
									c-0.058-0.073-0.15-0.16-0.118-0.013C455.049,368.191,455.046,368.298,454.996,368.398z"/>
							</g>
						</g>
					</g>
					<path style="fill:#00667C;" d="M457.26,279.986c-0.001-7.235-1.313-14.236-2.047-21.345c-0.026-0.248-9.853,0.206-10.747,0.316
						c-1.764,0.218-3.102,0.374-4.909,0.145c-0.922-0.117-6.86-0.234-7.795-0.217l2.933,26.33c0.364-0.07,0.737-0.052,1.078,0.099
						c1.795,0.797,4.725,35.609,3.723,41.283c-1.294,7.333,1.726,28.541,3.676,30.973c0.612,0.764,1.332,2.095,1.753,3.25
						c0.232,0.638,0.864,1.034,1.539,0.959c1.227-0.135,3.106-0.384,4.555-0.589c0.924-0.131,1.416-1.053,1.179-1.956
						c-0.015-0.057-0.022-0.108-0.019-0.152c0.057-0.809,0.13-1.327,0.531-2.032C454.557,353.812,457.26,287.249,457.26,279.986z"/>
				</g>
			</g>
			<g>
				<g>
					<g>
						<g>
							<path style="fill:#08051A;" d="M422.271,371.034c-0.061,0.153-0.111,2.343-0.33,2.564c-0.219,0.22-4.552,0.195-6.077-0.036
								c-1.69-0.257-3.406-0.623-5.007-1.229c-0.334-0.127-0.665-0.267-0.98-0.435c-0.291-0.155-0.634-0.304-0.802-0.593
								c-0.484-0.833-0.549-1.907-0.163-2.79"/>
						</g>
					</g>
					<g>
						<g>
							<path style="fill:#FFFFFF;" d="M409.265,367.837c-0.151,0.213-0.38,0.492-0.354,0.773c0.024,0.262,0.235,0.557,0.444,0.702
								c0.01,0.007,0.021,0.014,0.031,0.022c0.804,0.545,1.936,0.78,2.864,1.012c1.293,0.323,2.612,0.551,3.939,0.678
								c3.529,0.338,5.786,0.565,6.021,0.163c0.235-0.402-0.097-1.002-0.097-1.002L409.265,367.837z"/>
						</g>
					</g>
					<g>
						<g>
							<g>
								<path style="fill:#E87578;" d="M420.409,365.527c0.28-0.48,0.346-1.073,0.368-1.706c0.127-3.754,0.799-7.489,1.992-11.057
									c0.575-1.721,1.272-3.412,1.616-5.192c0.221-1.143,0.649-4.137-0.445-5.019c-0.595-0.48-2.34-0.247-3.076-0.248
									c-1.221-0.001-2.444,0.028-3.663,0.097c-0.47,0.027-1.61-0.085-2.007,0.23c-0.275,0.22-0.1,1.65-0.102,1.949
									c-0.011,1.53,0.013,3.06,0.038,4.59c0.064,3.895,0.597,8.033-0.129,11.88c-0.158,0.835-0.371,1.659-0.639,2.466
									c-0.273,0.821-0.596,1.75-0.182,2.51c0.404,0.742,1.352,0.992,2.197,1.006c1.131,0.019,2.322-0.245,3.312-0.805
									C420.019,366.04,420.249,365.802,420.409,365.527z"/>
							</g>
						</g>
					</g>
					<g>
						<g>
							<path style="fill:#454658;" d="M422.182,367.521c0.001-0.619,0-1.248-0.165-1.845c-0.165-0.597-0.518-1.169-1.065-1.461
								c-0.772-0.41-1.727-0.179-2.523,0.183c-0.796,0.362-1.561,0.851-2.429,0.953c-0.36,0.042-0.741,0.012-1.059-0.164
								c-0.514-0.285-0.769-0.905-0.778-1.492c-0.009-0.588,0.186-1.157,0.379-1.713c-0.155-0.035-0.31-0.071-0.465-0.106
								c0.11,0.025-0.086,1.123-0.112,1.235c-0.107,0.467-0.306,0.87-0.502,1.302c-0.344,0.759-0.604,1.38-1.334,1.875
								c-0.623,0.422-1.344,0.67-2.047,0.94c-0.327,0.126-0.683,0.286-0.818,0.609c-0.156,0.374,0.068,0.819,0.403,1.047
								c0.372,0.252,0.937,0.422,1.362,0.591c0.626,0.248,1.4,0.273,2.062,0.367c1.472,0.209,2.951,0.366,4.431,0.502
								c0.94,0.086,1.881,0.164,2.822,0.24c0.554,0.045,1.494,0.26,1.766-0.398c0.138-0.333,0.066-0.799,0.067-1.147
								C422.18,368.533,422.181,368.027,422.182,367.521z"/>
						</g>
					</g>
					<g>
						<g>
							<path style="fill:#08051A;" d="M414.426,370.133c0.077-0.002,0.144-0.059,0.156-0.137c0.163-1.061,0.897-2.089,1.965-2.748
								c0.877-0.542,1.982-0.874,3.375-1.012c0.395-0.04,0.854-0.07,1.269,0.065c0.414,0.136,0.727,0.446,0.794,0.792
								c0.016,0.087,0.091,0.143,0.189,0.127c0.087-0.017,0.144-0.102,0.127-0.19c-0.088-0.458-0.486-0.866-1.011-1.037
								c-0.471-0.154-0.97-0.12-1.401-0.08c-1.444,0.144-2.593,0.491-3.513,1.06c-1.147,0.708-1.938,1.819-2.114,2.974
								c-0.013,0.087,0.047,0.171,0.135,0.184C414.407,370.133,414.417,370.134,414.426,370.133z"/>
						</g>
					</g>
					<g>
						<g>
							<path style="fill:#08051A;" d="M420.624,366.104c0.068-0.001,0.13-0.046,0.151-0.114c0.192-0.636,0.199-1.337,0.021-1.974
								c-0.023-0.085-0.107-0.141-0.199-0.112c-0.085,0.023-0.136,0.113-0.112,0.199c0.162,0.578,0.154,1.215-0.02,1.792
								c-0.026,0.086,0.023,0.176,0.108,0.202C420.591,366.103,420.607,366.105,420.624,366.104z"/>
						</g>
					</g>
					<g>
						<g>
							<path style="fill:#08051A;" d="M420.157,366.146c0.077-0.002,0.144-0.057,0.156-0.136c0.105-0.658,0.106-1.326,0.002-1.983
								c-0.015-0.088-0.096-0.151-0.185-0.135c-0.088,0.015-0.148,0.097-0.135,0.185c0.1,0.625,0.098,1.258-0.001,1.882
								c-0.014,0.089,0.045,0.171,0.134,0.185C420.138,366.145,420.148,366.147,420.157,366.146z"/>
						</g>
					</g>
					<g>
						<g>
							<path style="fill:#FFFFFF;" d="M421.377,371.933c0.121-0.005,0.025,0.942-0.074,1.127c-0.099,0.185-2.658,0.172-2.754,0.044
								c-0.096-0.128-0.152-1.385-0.015-1.359C418.672,371.771,420.888,371.953,421.377,371.933z"/>
						</g>
					</g>
					<g>
						<g>
							<path style="fill:#08051A;" d="M413.315,365.59c0.072,0.17,0.184,0.321,0.252,0.493c0.068,0.171,0.086,0.381-0.023,0.53
								c-0.136,0.185-0.429,0.198-0.621,0.071c-0.192-0.127-0.295-0.354-0.337-0.581c-0.087-0.47,0.07-0.971,0.386-1.325
								c0.162-0.182,0.414-0.396,0.31-0.016C413.206,365.039,413.201,365.322,413.315,365.59z"/>
						</g>
					</g>
					<g>
						<g>
							<path style="fill:#08051A;" d="M412.325,366.558c0.044,0.105,0.113,0.199,0.156,0.305c0.042,0.106,0.053,0.235-0.014,0.327
								c-0.084,0.115-0.265,0.122-0.384,0.044c-0.119-0.078-0.182-0.219-0.208-0.359c-0.054-0.29,0.043-0.6,0.239-0.819
								c0.1-0.113,0.256-0.245,0.192-0.01C412.258,366.217,412.254,366.392,412.325,366.558z"/>
						</g>
					</g>
					<g>
						<g>
							<path style="fill:#08051A;" d="M411.603,367.056c0.027,0.065,0.07,0.123,0.096,0.188c0.026,0.066,0.033,0.145-0.009,0.202
								c-0.052,0.071-0.164,0.076-0.237,0.027c-0.073-0.048-0.113-0.135-0.129-0.222c-0.033-0.18,0.027-0.371,0.148-0.506
								c0.062-0.069,0.158-0.151,0.119-0.006C411.561,366.846,411.559,366.954,411.603,367.056z"/>
						</g>
					</g>
				</g>
				<path style="fill:#00667C;" d="M414.264,278.655c0.403-7.223,2.104-14.14,3.231-21.198c0.039-0.246,9.826,0.754,10.713,0.914
					c1.749,0.315,3.077,0.546,4.894,0.418c0.927-0.066,1.884-0.159,2.816-0.09l0.584,26.433c-0.359-0.091-0.733-0.093-1.082,0.039
					c-1.836,0.696-6.7,35.291-6.015,41.012c0.884,7.393-3.311,28.401-5.394,30.721c-0.652,0.726-1.371,1.45-1.821,2.298
					c-0.284,0.534-0.812,0.889-1.417,0.859c-1.222-0.06-3.21-0.188-4.689-0.318c-0.897-0.079-1.47-0.924-1.314-1.811
					c0.011-0.065,0.017-0.124,0.017-0.172c-0.012-0.811,0.09-1.18-0.271-1.906C412.854,352.516,413.859,285.906,414.264,278.655z"/>
			</g>
			<path style="fill:#08051A;" d="M435.963,180.951c-7.183,0-13.484-3.855-13.484-8.251c0-4.602,0.908-7.396,13.484-7.396
				c12.577,0,13.484,2.794,13.484,7.396C449.448,177.096,443.146,180.951,435.963,180.951z"/>
			<path style="fill:#08051A;" d="M448.517,172.7c0,3.501-5.62,7.195-12.553,7.195c-6.933,0-12.553-3.693-12.553-7.195
				s0-6.339,12.553-6.339C448.517,166.361,448.517,169.199,448.517,172.7z"/>
			<g>
				<g>
					<g>
						<g>
							<path style="fill:#E87578;" d="M429.818,222.954c-0.881,0.702-16.905,13.271-25.134,17.851
								c-2.259,1.257-5.107,0.503-6.447-1.707l0,0c-1.386-2.286-0.642-5.263,1.656-6.627l26.456-13.996L429.818,222.954z"/>
							<path style="fill:#E87578;" d="M425.599,220.475c-0.216-0.313-0.266-0.682-0.244-1.075c-0.09-0.818,0.316-2.122,0.589-3.642
								c0.431-2.401,0.357-4.423,1.752-4.172c0.839,0.15,1.45,0.995,1.715,2.161c2.829-2.568,6.116-4.762,6.322-4.777
								c0.601-0.043,1.043,0.758,1.31,0.995c0.239,0.213,0.535-0.349,1.132,0.247c0.248,0.387,0.443,0.809,0.589,1.264
								c0.003,0.438-0.199,0.747-0.335,0.825c-0.223,0.129,0.609,0.695,0.627,1.359c-0.002,0.03-0.012,0.062-0.014,0.092
								c-0.069,0.63-0.931,0.947-1.13,1.184c-0.169,0.202,0.688,0.691,0.181,1.933c-0.783,1.455-2.045,2.911-3.956,4.215
								C428.049,225.242,427.518,223.262,425.599,220.475z"/>
						</g>
						<g>
							<path style="fill:#E87578;" d="M469.394,196.757c0.144,1.118,2.58,21.336,2.228,30.747c-0.096,2.583-2.219,4.627-4.803,4.627
								l0,0c-2.673,0-4.833-2.18-4.808-4.853l1.753-29.879L469.394,196.757z"/>
							<path style="fill:#E87578;" d="M465.605,231.1c6.287-2.757,4.227-7.131,2.02-11.586s-9.673-24.993-13.664-26.759
								c-3.991-1.767-8.674,0.894-7.645,4.137s12.642,31.655,16.656,33.749C464.647,231.515,465.605,231.1,465.605,231.1z"/>
							<path style="fill:#43ABE2;" d="M450.452,190.334c5.257,0.714,7.417,4.703,17.591,26.188c0,0-6.279,5.654-11.305,6.562
								l-7.658-14.567c0,0-6.407-10.758-4.048-14.582C447.391,190.111,450.452,190.334,450.452,190.334z"/>
						</g>
						<g>
							<g>
								<g>
									<g>
										<path style="fill:#FFFFFF;" d="M431.071,181.646c0.036-0.001,0.071-0.014,0.101-0.04c0.067-0.058,0.074-0.16,0.015-0.228
											c-1.169-1.343-2.205-2.816-3.074-4.379c-0.044-0.077-0.145-0.104-0.22-0.063c-0.077,0.044-0.105,0.142-0.062,0.22
											c0.881,1.583,1.928,3.075,3.113,4.435C430.977,181.63,431.024,181.648,431.071,181.646z"/>
									</g>
								</g>
								<g>
									<g>
										
											<path style="fill:none;stroke:#FFFFFF;stroke-width:0.2687;stroke-linecap:round;stroke-linejoin:round;stroke-miterlimit:10;" d="
											M441.631,180.937"/>
									</g>
								</g>
								<g>
									<g>
										<path style="fill:#FFFFFF;" d="M442.525,180.908c0.052-0.002,0.103-0.029,0.133-0.077c0.99-1.616,1.943-3.284,2.832-4.96
											c0.042-0.078,0.012-0.176-0.066-0.218c-0.076-0.042-0.176-0.013-0.219,0.067c-0.887,1.67-1.837,3.332-2.823,4.942
											c-0.047,0.076-0.022,0.176,0.054,0.222C442.464,180.901,442.495,180.909,442.525,180.908z"/>
									</g>
								</g>
							</g>
							<g>
								<g>
									<path style="fill:#E87578;" d="M445.572,175.963c-0.681,1.479-0.921,3.114-1.275,4.703
										c-0.354,1.589-0.86,3.208-1.952,4.415c-0.737,0.814-1.694,1.39-2.637,1.953c-0.805,0.481-1.634,0.971-2.56,1.121
										c-1.91,0.31-3.712-0.868-5.289-1.99c-1.141-0.812-2.309-1.651-3.074-2.825c-1.179-1.808-1.217-4.104-1.217-6.262"/>
								</g>
							</g>
							<g>
								<g>
									<g>
										<path style="fill:#E87578;" d="M427.234,174.981c-0.385-0.637-1.023-1.236-1.765-1.169
											c-0.548,0.049-1.02,0.478-1.207,0.995c-0.187,0.518-0.117,1.104,0.099,1.61c0.217,0.506,0.57,0.942,0.952,1.339
											c0.266,0.276,0.555,0.54,0.904,0.7c0.348,0.16,0.767,0.204,1.113,0.038C428.589,177.889,427.725,175.794,427.234,174.981z
											"/>
									</g>
								</g>
								<g>
									<g>
										<path style="fill:#E87578;" d="M444.674,174.411c0.343-0.661,0.94-1.3,1.685-1.282c0.55,0.013,1.049,0.41,1.269,0.915
											c0.22,0.505,0.189,1.094,0.006,1.613c-0.183,0.519-0.507,0.978-0.862,1.398c-0.248,0.293-0.519,0.576-0.856,0.758
											c-0.337,0.182-0.752,0.254-1.108,0.111C443.512,177.401,444.237,175.254,444.674,174.411z"/>
									</g>
								</g>
								<g>
									<g>
										<g>
											<g>
												<g>
													<path style="fill:#E87578;" d="M432.223,190.396c0.032-0.074,0.069-0.149,0.11-0.226
														c0.272-0.514,0.404-0.95,0.458-1.556c0.106-1.196-0.048-2.395-0.063-3.591c-0.027-2.134-0.14-4.276-0.352-6.4
														c0,0,7.929,3.001,8.052,3.047c-0.314-0.119-0.743,2.988-0.776,3.229c-0.232,1.683-0.368,3.342-0.278,5.039
														c0.035,0.666,0.001,1.394-0.427,1.905c-0.381,0.454-0.993,0.637-1.578,0.732c-1.229,0.2-2.503,0.111-3.693-0.257
														c-0.485-0.15-0.976-0.36-1.3-0.751C432.028,191.146,432.053,190.788,432.223,190.396z"/>
												</g>
											</g>
										</g>
									</g>
									<g>
										<g>
											<path style="fill:#08051A;" d="M424.582,170.189c-0.141-2.661,0.425-5.25,1.942-7.369
												c3.064-4.278,9.273-5.955,14.074-3.801c3.751,1.683,6.33,5.561,6.72,9.619c0.447,4.646-2.439,8.423-4.411,12.353
												c-1.269,2.528-3.07,3.521-5.884,3.662c-1.839,0.092-3.824,0.058-5.321-1.016
												C427.836,180.863,424.859,175.389,424.582,170.189z"/>
										</g>
									</g>
								</g>
							</g>
						</g>
						<path style="fill:#E87578;" d="M401.934,240.015c-6.388-2.512-4.499-6.963-2.465-11.499
							c2.035-4.536,8.703-25.347,12.622-27.266c3.92-1.919,8.702,0.559,7.799,3.839c-0.903,3.28-11.413,32.118-15.343,34.366
							C402.907,240.393,401.934,240.015,401.934,240.015z"/>
						<path style="fill:#43ABE2;" d="M419.902,190.503c-5.379,1.724-7.23,4.985-16.569,26.847c0,0,6.492,5.408,11.549,6.121
							l7.091-14.851c0,0,8.343-12.699,5.838-16.429C425.306,188.461,419.902,190.503,419.902,190.503z"/>
						<g>
							<path style="fill:#43ABE2;" d="M412.789,271.744c3.017-17.338,6.056-53.271,3.584-64.875
								c-0.078-0.365-0.24-4.74,0.884-10.258c0.519-2.548,0.793-3.84,1.5-4.732c2.334-2.943,6.829-1.897,15.793-1.64
								c12.508,0.359,15.553-1.357,18.447,1.424c3.159,3.037,1.084,8.137,0.965,10.273c-0.672,12.072,1.267,35.756,4.378,68.393
								c-5.29,1.749-14.539,3.511-23.81,3.799C425.564,274.406,418.091,273.094,412.789,271.744z"/>
						</g>
					</g>
					<g>
						
							<path style="fill:none;stroke:#08051A;stroke-width:0.5;stroke-linecap:round;stroke-linejoin:round;stroke-miterlimit:10;" d="
							M453.058,274.622c0,0-9.582,1.693-12.728,2.022c0,0,1.342,9.991,2.378,10.634s4.999,1.979,6.135,1.829
							c1.136-0.15,5.119-4.34,5.119-5.129S453.058,274.622,453.058,274.622z"/>
						
							<path style="fill:none;stroke:#08051A;stroke-width:0.5;stroke-linecap:round;stroke-linejoin:round;stroke-miterlimit:10;" d="
							M453.225,276.218c0,0-7.542,2.055-12.844,2.003"/>
					</g>
					<g>
						
							<path style="fill:none;stroke:#08051A;stroke-width:0.5;stroke-linecap:round;stroke-linejoin:round;stroke-miterlimit:10;" d="
							M418.908,275.74c0,0,9.672,1.063,12.833,1.185c0,0-0.686,10.057-1.677,10.766c-0.992,0.709-4.859,2.301-6.002,2.226
							c-1.144-0.075-5.392-3.995-5.444-4.783C418.566,284.347,418.908,275.74,418.908,275.74z"/>
						
							<path style="fill:none;stroke:#08051A;stroke-width:0.5;stroke-linecap:round;stroke-linejoin:round;stroke-miterlimit:10;" d="
							M418.846,277.343c0,0,7.66,1.557,12.947,1.159"/>
					</g>
				</g>
				<path style="fill:none;stroke:#08051A;stroke-width:0.5;stroke-linecap:round;stroke-linejoin:round;stroke-miterlimit:10;" d="
					M467.569,216.63c0,0,4.122,7.195,3.413,9.391"/>
				<path style="fill:none;stroke:#08051A;stroke-width:0.5;stroke-linecap:round;stroke-linejoin:round;stroke-miterlimit:10;" d="
					M412.789,224.029c-0.168,0.404-4.035,10.098-6.642,13.663"/>
			</g>
			<path style="fill:#454658;" d="M448.517,169.377c0.639,3.784-7.565,5.11-12.511,5.117c-4.946-0.007-13.15-1.333-12.511-5.117
				c0,0-1.942,4.012,0.884,6.279c1.629,1.307,3.909,1.681,5.923,1.92c3.215,0.382,6.263,0.406,9.485,0.177
				c2.59-0.185,5.735-0.403,7.847-2.097C450.459,173.389,448.517,169.377,448.517,169.377z"/>
			<path style="fill:#454658;" d="M439.054,179.282h-6.097c-0.504,0-0.912-0.408-0.912-0.912v-5.431
				c0-0.859,0.696-1.555,1.555-1.555h4.811c0.859,0,1.555,0.696,1.555,1.555v5.431C439.966,178.874,439.558,179.282,439.054,179.282
				z"/>
			<polygon style="fill:#454658;" points="435.077,157.553 436.935,157.553 437.462,172.289 434.55,172.289 			"/>
			<rect x="433.935" y="177.406" style="fill:#08051A;" width="3.794" height="0.592"/>
			<rect x="433.935" y="175.667" style="fill:#08051A;" width="3.794" height="0.592"/>
			<rect x="433.935" y="173.928" style="fill:#08051A;" width="3.794" height="0.592"/>
			<g>
				<path style="fill:#E87578;" d="M458.68,192.036c0.631-0.598,1.692-0.596,2.81-0.11c-0.179-1.741-0.25-3.494-0.243-5.244
					c0.003-0.662-0.233-2.175,0.124-2.776c0.62-1.044,1.713,0.041,1.972,0.738c0.136,0.365,0.734,2.377,0.504,2.68
					c0.133-0.176,0.193-0.53,0.846-0.508c0.455,0.116,0.614,0.25,1.04,0.488c0.307,0.325,0.181,1.023,0.135,1.177
					c-0.076,0.251,1.089-0.397,1.565,0.086c0.388,0.518,0.34,1.641,0.357,1.957c0.014,0.268,0.995,0.036,1.481,1.316
					c0.296,1.122,0.405,2.414,0.288,3.854l-0.439,3.094c-0.896,2.719-2.326,2.451-3.726,1.631c-0.38-0.222-1.494-1.49-1.833-1.812
					c-0.696-0.472-1.488-1.529-2.509-2.606C459.338,194.194,457.63,193.032,458.68,192.036z"/>
			</g>
		</g>
		<rect x="392.665" y="157.48" style="fill:#FFFFFF;" width="14.588" height="3.765"/>
	</g>
	<g>
		<g>
			<ellipse style="fill:#BFC9E2;" cx="310.945" cy="375.659" rx="34.824" ry="8.015"/>
			<g>
				<g>
					<path style="fill:#454658;" d="M259.316,210.927l-4.308-0.621c-0.272-0.039-0.474-0.273-0.474-0.548v-13.665
						c0-0.275,0.202-0.508,0.474-0.548l4.308-0.621V210.927z"/>
					<path style="fill:#381905;" d="M255.387,195.631c-0.269,0.039-0.469,0.27-0.469,0.541v2.367l0,0
						c1.192,0,2.159,0.967,2.159,2.159v4.682c0,1.192-0.967,2.159-2.159,2.159l0,0v2.14c0,0.272,0.2,0.503,0.469,0.541l4.258,0.614
						v-15.819L255.387,195.631z"/>
				</g>
				<g>
					<path style="fill:#454658;" d="M362.574,210.927l4.308-0.621c0.272-0.039,0.474-0.273,0.474-0.548v-13.665
						c0-0.275-0.202-0.508-0.474-0.548l-4.308-0.621V210.927z"/>
					<path style="fill:#381905;" d="M366.504,195.631c0.269,0.039,0.469,0.27,0.469,0.541v2.367l0,0
						c-1.192,0-2.159,0.967-2.159,2.159v4.682c0,1.192,0.967,2.159,2.159,2.159l0,0v2.14c0,0.272-0.2,0.503-0.469,0.541
						l-4.259,0.614v-15.819L366.504,195.631z"/>
				</g>
				<g>
					<path style="fill:#454658;" d="M259.316,229.689l-4.308-0.621c-0.272-0.039-0.474-0.273-0.474-0.548v-13.664
						c0-0.275,0.202-0.508,0.474-0.548l4.308-0.621V229.689z"/>
					<path style="fill:#381905;" d="M255.387,214.393c-0.269,0.039-0.469,0.27-0.469,0.541v2.367l0,0
						c1.192,0,2.159,0.967,2.159,2.159v4.682c0,1.193-0.967,2.159-2.159,2.159l0,0v2.14c0,0.272,0.2,0.503,0.469,0.541l4.258,0.614
						v-15.819L255.387,214.393z"/>
				</g>
				<g>
					<path style="fill:#454658;" d="M259.316,190.602l-4.308-0.621c-0.272-0.039-0.474-0.273-0.474-0.548v-9.756
						c0-0.275,0.202-0.509,0.474-0.548l4.308-0.621V190.602z"/>
					<path style="fill:#381905;" d="M255.387,179.214c-0.269,0.039-0.469,0.27-0.469,0.542v2.367l0,0
						c1.192,0,2.159,0.967,2.159,2.159v0.773c0,1.192-0.967,2.159-2.159,2.159l0,0v2.14c0,0.272,0.2,0.503,0.469,0.541l4.258,0.614
						V178.6L255.387,179.214z"/>
				</g>
				<path style="fill:#454658;" d="M348.847,361.62h-75.819c-9.234,0-16.72-7.486-16.72-16.72V155.622
					c0-9.234,7.486-16.72,16.72-16.72h75.819c9.234,0,16.72,7.486,16.72,16.72v189.277
					C365.568,354.134,358.082,361.62,348.847,361.62z"/>
				<path style="fill:#381905;" d="M260.216,344.899V155.622c0-7.076,5.736-12.811,12.811-12.811h75.819
					c7.076,0,12.812,5.736,12.812,12.812v189.276c0,7.076-5.736,12.812-12.812,12.812h-75.819
					C265.952,357.711,260.216,351.975,260.216,344.899z"/>
				<g>
					<path style="fill:#D5D7E6;" d="M348.848,144.101h-9.508c-1.159,0-2.099,0.94-2.099,2.099l0,0c0,3.292-2.669,5.962-5.962,5.962
						h-40.684c-3.292,0-5.961-2.669-5.961-5.962l0,0c0-1.159-0.94-2.099-2.099-2.099h-9.507c-5.781,0-10.466,4.686-10.466,10.467
						v189.276c0,5.78,4.686,10.466,10.466,10.466h75.819c5.78,0,10.466-4.686,10.466-10.466V154.567
						C359.314,148.787,354.628,144.101,348.848,144.101z"/>
					<rect x="263.562" y="163.833" style="fill:#FFFFFF;" width="94.752" height="33.774"/>
					<rect x="273.367" y="172.71" style="fill:#EEEDFB;" width="76.6" height="3.765"/>
					<rect x="273.367" y="180.719" style="fill:#EEEDFB;" width="76.6" height="3.765"/>
					<rect x="263.562" y="242.892" style="fill:#FFFFFF;" width="94.752" height="92.633"/>
					<rect x="279.111" y="264.421" style="fill:#EEEDFB;" width="63.653" height="54.801"/>
					<rect x="273.367" y="247.749" style="fill:#EEEDFB;" width="76.6" height="3.765"/>
					<rect x="273.367" y="255.757" style="fill:#EEEDFB;" width="76.6" height="3.765"/>
				</g>
			</g>
			<rect x="264.555" y="157.48" style="fill:#FFFFFF;" width="14.588" height="3.765"/>
		</g>
		<g>
			<path style="fill:#FF8B6A;" d="M275.433,208.04c-0.144,1.118-2.58,21.336-2.228,30.747c0.096,2.583,2.219,4.627,4.803,4.627l0,0
				c2.673,0,4.833-2.18,4.808-4.853l-1.753-29.879L275.433,208.04z"/>
			<g>
				<path style="fill:#FF8B6A;" d="M282.282,198.477c-0.845-0.205-1.764,0.325-2.492,1.303c-0.711-1.599-1.522-3.155-2.398-4.67
					c-0.331-0.573-0.88-2.003-1.489-2.347c-1.057-0.597-1.465,0.888-1.343,1.621c0.064,0.384,0.546,2.427,0.896,2.576
					c-0.203-0.086-0.431-0.364-0.986-0.019c-0.337,0.327-0.409,0.522-0.66,0.941c-0.105,0.434,0.352,0.978,0.469,1.088
					c0.191,0.179-1.142,0.197-1.314,0.853c-0.079,0.642,0.522,1.593,0.664,1.875c0.121,0.24-0.845,0.526-0.63,1.878
					c0.301,1.12,0.85,2.295,1.668,3.486l1.92,2.465c2.13,1.913,3.237,0.969,4.044-0.439c0.219-0.382,0.555-2.035,0.688-2.483
					c0.369-0.756,0.53-2.067,0.88-3.508C282.785,200.677,283.689,198.819,282.282,198.477z"/>
			</g>
			<path style="fill:#FF8B6A;" d="M279.223,242.383c-6.287-2.757-4.227-7.131-2.02-11.586c2.208-4.454,9.673-24.993,13.664-26.759
				c3.991-1.767,8.674,0.894,7.645,4.137c-1.029,3.243-12.642,31.655-16.656,33.749C280.18,242.798,279.223,242.383,279.223,242.383
				z"/>
			<path style="fill:#454658;" d="M294.375,201.618c-5.257,0.714-7.417,4.703-17.591,26.188c0,0,6.279,5.654,11.305,6.562
				l7.658-14.567c0,0,6.407-10.758,4.048-14.582C297.436,201.395,294.375,201.618,294.375,201.618z"/>
		</g>
		<g>
			<g>
				<g>
					<path style="fill:#FF8B6A;" d="M326.858,202.551c-2.881,0.037-4.883,5.776-3.54,10.864c0.094,0.842,7.2,19.655,8.77,24.872
						c0.742,2.466,3.443,3.801,5.882,2.826c2.114-0.845,3.16-3.244,2.565-5.441C338.997,229.994,334.886,202.448,326.858,202.551z"
						/>
				</g>
				<path style="fill:#454658;" d="M333.173,203.818c0,0,4.538,16.17,7.303,25.579c0,0-6.672,5.12-11.483,4.951
					c0,0-5.274-18.831-4.857-19.399C324.552,214.38,325.141,204.729,333.173,203.818z"/>
			</g>
			<path style="fill:#FF8B6A;" d="M368.613,221.223c-0.022-0.158-0.087-0.301-0.212-0.405c-0.32-0.264-0.862-0.115-1.156-0.408
				c-0.166-0.166-0.197-0.422-0.316-0.625c-0.308-0.525-0.863-0.463-1.362-0.345c-0.024,0.658-0.153,1.167-0.13,1.724
				c-0.437-0.084-0.901-0.073-1.366,0.056l-0.042,0.012c0.264-1.067,0.111-2.013-0.516-2.483c-1.042-0.782-1.816,0.91-3.161,2.703
				c-0.852,1.136-1.724,2.039-1.987,2.748c-0.18,0.313-0.291,0.637-0.243,0.983c0.426,3.081,0.044,4.926,6.759,4.026l0.048-0.007
				c0.964-0.131,2.094-0.78,2.644-1.592c0.217-0.321,0.375-0.732,0.231-1.091c-0.087-0.218-0.277-0.393-0.316-0.625
				c-0.057-0.332,0.211-0.626,0.474-0.837c0.263-0.211,0.566-0.434,0.62-0.767c0.072-0.444-0.336-0.826-0.393-1.273
				c-0.049-0.387,0.171-0.75,0.317-1.113C368.592,221.694,368.644,221.444,368.613,221.223z"/>
			<g>
				<path style="fill:#FF8B6A;" d="M364.198,227.586c-0.884,0.54-16.94,10.166-24.971,13.4c-2.204,0.888-4.715-0.127-5.685-2.297
					l0,0c-1.002-2.243,0.017-4.874,2.27-5.855l25.735-9.732L364.198,227.586z"/>
			</g>
			<g>
				<g>
					<g>
						<path style="fill:#454658;" d="M333.361,201.184c-3.787-4.864-40.034-1.975-42.295,0.627
							c-2.261,2.602,5.367,24.273,5.366,33.338c-0.002,11.567-3.119,20.73-3.119,20.73s9.016,1.961,21.131,2.128
							c12.115,0.166,14.744-8.353,14.744-8.353s-2.037-14.646-1.677-17.724C327.87,228.851,335.599,204.059,333.361,201.184z"/>
						<g>
							<path style="fill:#00667C;" d="M329.187,250.742c0.784,2.482,1.492,5.223,2.033,8.206c1.622,8.942,1.16,16.812,0.229,22.768
								c-6.895,0.837-15.561,0.04-25.046,0.163c-7.958,0.103-13.698,0.078-13.698,0.078c-2.367-10.059-3.597-20.8,2.258-30.193
								C289.547,260.453,329.428,252.888,329.187,250.742z"/>
						</g>
						<g>
							<g>
								<g>
									<g>
										<path style="fill:#FF8B6A;" d="M330.288,333.615c-0.5-6.135-1.869-11.885-3.693-14.294
											c-1.603-2.119-7.949-2.306-8.493,0.93c-1.713,7.058,3.738,37.96,3.864,44.258c0.063,3.12-0.535,4.155,1.767,4.758
											c2.302,0.603,3.843-0.688,3.843-0.688c1.112-1.573,0.595-3.749,0.808-6.198
											C328.597,359.931,330.788,339.75,330.288,333.615z"/>
									</g>
								</g>
								<path style="fill:#00667C;" d="M329.021,324.278c0.734,2.667,1.271,5.887,1.55,9.314c0.432,5.289-0.885,18.515-1.47,24.395
									c-0.005,0.049-0.123,1.243-0.197,1.996c-0.036,0.367-0.288,0.684-0.645,0.777c-2.049,0.537-4.296,0.441-6.363-0.156
									c-0.344-0.099-0.587-0.402-0.628-0.757c-0.274-2.351-0.658-5.254-1.072-8.389c-0.9-6.811-1.919-14.529-2.416-20.864
									c-0.146-0.344-0.257-0.701-0.339-1.09c-2.668-12.687-4.294-56.832-4.311-57.276l-0.005-0.139l0.108-0.09
									c2.894-2.4,7.524-5.199,13.168-4.891c1.451,0.079,3.095,0.169,4.485,1.21c2.047,1.534,0.832,19.166-0.838,40.317
									C329.478,315.84,328.986,322.067,329.021,324.278z"/>
							</g>
						</g>
						<g>
							<g>
								<g>
									<g>
										<path style="fill:#FF8B6A;" d="M311.053,269.251c0,0,3.828,47.408,2.562,61.357c-0.718,7.915-12.472,0.741-12.311-3.378
											c0.161-4.118-12.168-56.806-9.095-59.725c1.256-1.193,2.856-1.489,4.457-1.765
											C303.097,264.63,308.613,267.669,311.053,269.251z"/>
										<path style="fill:#FF8B6A;" d="M300.777,336.608c-0.233-6.582,0.504-12.864,2.142-15.653
											c1.44-2.452,8.16-3.442,9.142-0.071c2.701,7.287,0.761,40.809,1.413,47.518c0.323,3.324,1.087,4.349-1.284,5.277
											c-2.371,0.928-4.17-0.251-4.17-0.251c-1.378-1.533-1.1-3.91-1.632-6.487C305.856,364.365,301.01,343.191,300.777,336.608z
											"/>
									</g>
								</g>
								<path style="fill:#00667C;" d="M300.959,326.526c-0.448,2.927-0.617,6.415-0.486,10.092
									c0.201,5.675,3.25,19.567,4.605,25.743c0.011,0.052,0.286,1.305,0.459,2.096c0.084,0.385,0.391,0.691,0.782,0.745
									c2.244,0.315,4.62-0.067,6.743-0.96c0.353-0.148,0.574-0.5,0.573-0.883c-0.002-2.533,0.043-5.665,0.093-9.049
									c0.107-7.351,0.228-15.68-0.034-22.475c0.112-0.384,0.185-0.777,0.224-1.2c1.253-13.816-2.524-60.935-2.562-61.41
									l-0.012-0.149l-0.125-0.082c-3.376-2.19-8.645-4.588-14.605-3.555c-1.532,0.265-3.268,0.565-4.615,1.845
									c-1.985,1.885,1.506,20.474,5.919,42.744C299.42,317.616,300.72,324.173,300.959,326.526z"/>
							</g>
						</g>
						<g>
							
								<rect x="308.377" y="194.694" transform="matrix(-0.9996 0.0288 -0.0288 -0.9996 628.8896 391.2409)" style="fill:#FF8B6A;" width="6.5" height="10.911"/>
							<path style="fill:#381905;" d="M308.28,196.807l-0.088-3.058l6.497-0.187l0.136,4.728
								C312.569,198.287,310.4,197.71,308.28,196.807z"/>
							<path style="fill:#381905;" d="M311.42,171.783c6.847-0.197,9.434,5.419,9.63,12.222c0.185,6.412-3.853,11.899-8.931,12.045
								c-5.352,0.154-9.425-5.1-9.609-11.511C302.314,177.736,304.573,171.98,311.42,171.783z"/>
						</g>
					</g>
				</g>
				<g>
					<g>
						<path style="fill:#381905;" d="M315.703,377.231c-0.057,0.167,0.027,2.514-0.193,2.764c-0.221,0.25-4.859,0.493-6.506,0.34
							c-1.825-0.169-3.684-0.454-5.435-1.004c-0.365-0.115-0.728-0.244-1.076-0.404c-0.321-0.148-0.697-0.286-0.895-0.585
							c-0.57-0.861-0.706-2.007-0.348-2.975"/>
					</g>
					<g>
						<path style="fill:#FFFFFF;" d="M301.586,374.62c-0.149,0.237-0.376,0.551-0.331,0.85c0.042,0.279,0.286,0.581,0.518,0.723
							c0.012,0.007,0.023,0.014,0.035,0.021c0.895,0.533,2.121,0.715,3.127,0.905c1.404,0.265,2.83,0.427,4.258,0.48
							c3.798,0.142,6.227,0.245,6.454-0.201c0.227-0.445-0.166-1.066-0.166-1.066L301.586,374.62z"/>
					</g>
					<g>
						<path style="fill:#454658;" d="M315.388,373.477c-0.038-0.663-0.078-1.336-0.292-1.964c-0.214-0.629-0.627-1.219-1.23-1.496
							c-0.851-0.391-1.859-0.084-2.688,0.353c-0.829,0.436-1.617,1.008-2.54,1.172c-0.383,0.068-0.792,0.059-1.143-0.11
							c-0.568-0.273-0.88-0.92-0.926-1.549c-0.047-0.628,0.127-1.25,0.299-1.856c-0.168-0.028-0.337-0.057-0.505-0.085
							c0.119,0.02-0.022,1.207-0.042,1.329c-0.085,0.507-0.273,0.95-0.456,1.425c-0.321,0.834-0.56,1.514-1.31,2.089
							c-0.64,0.491-1.397,0.801-2.132,1.133c-0.341,0.155-0.712,0.349-0.837,0.703c-0.144,0.41,0.124,0.873,0.497,1.095
							c0.414,0.247,1.029,0.393,1.495,0.547c0.685,0.227,1.516,0.205,2.23,0.265c1.588,0.132,3.181,0.208,4.773,0.261
							c1.011,0.034,2.023,0.058,3.034,0.081c0.596,0.013,1.615,0.185,1.866-0.537c0.126-0.365,0.021-0.859,0-1.231
							C315.45,374.56,315.419,374.018,315.388,373.477z"/>
					</g>
					<g>
						<path style="fill:#381905;" d="M307.237,376.757c0.089,0,0.164-0.068,0.173-0.157c0.108-1.146,0.83-2.292,1.932-3.064
							c0.904-0.634,2.065-1.059,3.548-1.295c0.523-0.082,0.955-0.116,1.363-0.008c0.452,0.119,0.805,0.433,0.898,0.799
							c0.024,0.093,0.121,0.151,0.21,0.124c0.093-0.023,0.149-0.118,0.125-0.211c-0.124-0.485-0.573-0.896-1.146-1.048
							c-0.493-0.131-1.015-0.078-1.505,0.003c-1.537,0.245-2.745,0.687-3.693,1.352c-1.184,0.83-1.96,2.07-2.078,3.315
							c-0.009,0.095,0.061,0.18,0.156,0.188C307.227,376.757,307.232,376.757,307.237,376.757z"/>
					</g>
					<g>
						<path style="fill:#381905;" d="M313.618,372.059c0.078,0,0.149-0.053,0.168-0.132c0.166-0.69,0.13-1.44-0.1-2.113
							c-0.031-0.09-0.133-0.138-0.22-0.107c-0.091,0.031-0.139,0.13-0.107,0.22c0.21,0.61,0.241,1.292,0.091,1.918
							c-0.022,0.093,0.035,0.187,0.128,0.208C313.591,372.057,313.605,372.059,313.618,372.059z"/>
					</g>
					<g>
						<path style="fill:#381905;" d="M313.122,372.133c0.088,0,0.163-0.066,0.172-0.155c0.071-0.712,0.03-1.426-0.122-2.124
							c-0.021-0.093-0.11-0.149-0.206-0.132c-0.093,0.02-0.152,0.112-0.132,0.206c0.145,0.662,0.183,1.341,0.116,2.016
							c-0.01,0.096,0.06,0.18,0.155,0.189C313.11,372.133,313.116,372.133,313.122,372.133z"/>
					</g>
					<g>
						<path style="fill:#FFFFFF;" d="M314.802,378.248c0.13-0.013,0.085,1.006-0.01,1.21c-0.095,0.204-2.833,0.35-2.944,0.219
							c-0.111-0.131-0.249-1.473-0.1-1.453C311.897,378.244,314.28,378.3,314.802,378.248z"/>
					</g>
					<g>
						<path style="fill:#381905;" d="M305.779,371.963c0.088,0.177,0.217,0.332,0.3,0.512c0.084,0.179,0.116,0.402,0.008,0.568
							c-0.134,0.207-0.447,0.239-0.66,0.115c-0.213-0.124-0.337-0.361-0.396-0.6c-0.123-0.497,0.015-1.043,0.331-1.442
							c0.163-0.205,0.419-0.45,0.331-0.036C305.629,371.38,305.64,371.683,305.779,371.963z"/>
					</g>
					<g>
						<path style="fill:#381905;" d="M304.78,373.06c0.054,0.11,0.134,0.205,0.185,0.316c0.052,0.111,0.071,0.249,0.005,0.351
							c-0.083,0.128-0.276,0.147-0.408,0.071c-0.132-0.076-0.209-0.223-0.245-0.371c-0.076-0.307,0.009-0.645,0.205-0.891
							c0.1-0.127,0.259-0.278,0.205-0.022C304.687,372.7,304.694,372.887,304.78,373.06z"/>
					</g>
					<g>
						<path style="fill:#381905;" d="M304.038,373.639c0.034,0.068,0.082,0.127,0.115,0.195c0.032,0.068,0.044,0.154,0.003,0.217
							c-0.051,0.079-0.171,0.091-0.252,0.044c-0.081-0.047-0.129-0.138-0.151-0.229c-0.047-0.19,0.005-0.399,0.126-0.551
							c0.062-0.078,0.16-0.172,0.126-0.014C303.981,373.416,303.985,373.532,304.038,373.639z"/>
					</g>
				</g>
				<g>
					<g>
						<path style="fill:#381905;" d="M318.999,374.484c0.056,0.167-0.027,2.514,0.193,2.764c0.221,0.25,4.859,0.493,6.506,0.34
							c1.825-0.169,3.684-0.454,5.435-1.003c0.366-0.115,0.728-0.244,1.076-0.404c0.321-0.148,0.697-0.286,0.895-0.585
							c0.57-0.861,0.706-2.007,0.348-2.975"/>
					</g>
					<g>
						<path style="fill:#FFFFFF;" d="M333.117,371.873c0.149,0.237,0.376,0.551,0.331,0.85c-0.042,0.279-0.286,0.581-0.519,0.723
							c-0.012,0.007-0.023,0.014-0.035,0.021c-0.895,0.533-2.121,0.715-3.127,0.905c-1.404,0.265-2.83,0.427-4.258,0.48
							c-3.798,0.142-6.227,0.244-6.454-0.201c-0.227-0.445,0.166-1.066,0.166-1.066L333.117,371.873z"/>
					</g>
					<g>
						<path style="fill:#454658;" d="M319.315,370.729c0.038-0.663,0.078-1.336,0.292-1.964c0.214-0.629,0.627-1.219,1.23-1.496
							c0.852-0.391,1.859-0.084,2.688,0.353c0.829,0.437,1.617,1.008,2.54,1.172c0.383,0.068,0.792,0.059,1.143-0.11
							c0.568-0.273,0.88-0.92,0.926-1.548c0.047-0.628-0.127-1.25-0.299-1.856c0.168-0.028,0.337-0.056,0.505-0.085
							c-0.119,0.02,0.022,1.207,0.042,1.329c0.085,0.507,0.273,0.95,0.456,1.424c0.321,0.834,0.56,1.514,1.31,2.089
							c0.64,0.491,1.397,0.801,2.132,1.133c0.342,0.155,0.713,0.349,0.837,0.703c0.144,0.41-0.124,0.873-0.497,1.095
							c-0.414,0.247-1.029,0.393-1.495,0.547c-0.685,0.227-1.516,0.205-2.23,0.265c-1.588,0.132-3.181,0.208-4.774,0.261
							c-1.011,0.034-2.023,0.058-3.034,0.081c-0.596,0.013-1.616,0.185-1.866-0.536c-0.126-0.365-0.021-0.859,0-1.231
							C319.253,371.812,319.284,371.271,319.315,370.729z"/>
					</g>
					<g>
						<path style="fill:#381905;" d="M327.465,374.01c-0.089,0-0.164-0.068-0.172-0.157c-0.108-1.146-0.83-2.292-1.932-3.064
							c-0.904-0.634-2.065-1.059-3.548-1.295c-0.523-0.082-0.955-0.116-1.363-0.008c-0.452,0.119-0.805,0.433-0.898,0.799
							c-0.024,0.093-0.121,0.151-0.21,0.124c-0.093-0.023-0.149-0.118-0.125-0.211c0.124-0.485,0.573-0.896,1.146-1.048
							c0.493-0.131,1.015-0.078,1.505,0.003c1.537,0.245,2.745,0.687,3.693,1.352c1.184,0.83,1.96,2.07,2.078,3.315
							c0.009,0.094-0.061,0.18-0.156,0.188C327.476,374.01,327.471,374.01,327.465,374.01z"/>
					</g>
					<g>
						<path style="fill:#381905;" d="M321.085,369.311c-0.078,0-0.15-0.053-0.168-0.132c-0.166-0.69-0.131-1.44,0.1-2.113
							c0.031-0.09,0.133-0.138,0.22-0.107c0.091,0.031,0.138,0.13,0.107,0.22c-0.21,0.61-0.241,1.293-0.091,1.919
							c0.023,0.093-0.035,0.187-0.128,0.208C321.111,369.31,321.098,369.311,321.085,369.311z"/>
					</g>
					<g>
						<path style="fill:#381905;" d="M321.581,369.386c-0.088,0-0.164-0.066-0.172-0.155c-0.071-0.713-0.03-1.427,0.122-2.124
							c0.021-0.093,0.11-0.149,0.206-0.133c0.093,0.02,0.152,0.112,0.132,0.205c-0.145,0.663-0.183,1.341-0.116,2.016
							c0.009,0.096-0.06,0.18-0.155,0.189C321.593,369.386,321.587,369.386,321.581,369.386z"/>
					</g>
					<g>
						<path style="fill:#FFFFFF;" d="M319.901,375.501c-0.13-0.013-0.085,1.006,0.009,1.21c0.095,0.204,2.833,0.35,2.944,0.219
							c0.111-0.131,0.249-1.473,0.1-1.453C322.805,375.497,320.422,375.553,319.901,375.501z"/>
					</g>
					<g>
						<path style="fill:#381905;" d="M328.924,369.215c-0.088,0.177-0.216,0.332-0.3,0.512c-0.084,0.179-0.116,0.402-0.008,0.568
							c0.134,0.207,0.447,0.239,0.66,0.115c0.213-0.124,0.337-0.361,0.396-0.6c0.123-0.497-0.015-1.043-0.331-1.442
							c-0.163-0.205-0.419-0.45-0.331-0.036C329.074,368.633,329.063,368.935,328.924,369.215z"/>
					</g>
					<g>
						<path style="fill:#381905;" d="M329.923,370.313c-0.054,0.11-0.134,0.205-0.185,0.316c-0.052,0.111-0.072,0.249-0.005,0.351
							c0.083,0.128,0.276,0.147,0.408,0.071c0.132-0.076,0.209-0.223,0.245-0.371c0.076-0.307-0.009-0.645-0.204-0.891
							c-0.1-0.126-0.259-0.278-0.205-0.022C330.016,369.953,330.008,370.14,329.923,370.313z"/>
					</g>
					<g>
						<path style="fill:#381905;" d="M330.664,370.891c-0.033,0.068-0.083,0.127-0.115,0.195c-0.032,0.069-0.044,0.154-0.003,0.217
							c0.051,0.079,0.171,0.091,0.252,0.044c0.081-0.047,0.129-0.138,0.151-0.229c0.047-0.19-0.005-0.399-0.126-0.551
							c-0.062-0.078-0.16-0.172-0.126-0.014C330.722,370.669,330.717,370.784,330.664,370.891z"/>
					</g>
				</g>
			</g>
			<path style="fill:#381905;" d="M328.051,181.498c-0.176-1.182,0.209-2.472-0.202-3.61c-0.676-1.869-3.003-2.373-4.766-3.291
				c-1.182-0.616-2.2-1.534-2.956-2.629c-0.636-0.921-0.826-2.2-1.71-2.869c-2.293-1.735-5.86-1.183-8.388-0.447
				c-3.572,1.04-4.851,3.346-6.865,6.195c-1.089,1.54-3.022,2.371-3.85,3.969c-0.99,1.91-1.381,4.318-0.213,6.244
				c0.582,0.96,1.512,1.748,1.761,2.843c0.355,1.56-0.783,3.014-1.698,4.326c-0.915,1.312-1.636,3.193-0.592,4.405
				c0.622,0.721,1.698,0.941,2.275,1.699c0.896,1.175,0.142,2.823-0.339,4.22c-1.058,3.075-0.477,6.599,1.36,9.259
				c0.813,1.177,0.981,2.542,1.87,3.68c0.913,1.169,2.262,1.997,3.687,2.382c2.287,0.617,4.727,0.248,7.012-0.378
				c2.225-0.61,4.52-1.566,5.815-3.476c1.107-1.633,1.314-3.721,2.251-5.458c0.737-1.367,1.891-2.453,2.867-3.662
				c0.976-1.208,1.813-2.665,1.716-4.215c-0.083-1.344-0.859-2.574-0.93-3.918c-0.112-2.124,1.498-3.888,2.85-5.53
				c1.352-1.642,2.592-3.874,1.675-5.793c-0.601-1.259-2.007-2.025-2.481-3.337C328.13,181.906,328.082,181.704,328.051,181.498z"/>
			
				<path style="fill:none;stroke:#08051A;stroke-width:0.5243;stroke-linecap:round;stroke-linejoin:round;stroke-miterlimit:10;" d="
				M293.132,255.249c-3.21,4.753,38.066,2.271,36.055-4.507"/>
			
				<path style="fill:none;stroke:#08051A;stroke-width:0.5243;stroke-linecap:round;stroke-linejoin:round;stroke-miterlimit:10;" d="
				M294.363,265.194c0,0,6.384,1.799,12.305,0.509c0,0-2.221,8.702-3.238,9.442c-1.018,0.74-2.776,1.943-3.608,1.85
				c-0.833-0.092-3.701-2.035-4.163-2.683C295.195,273.664,294.363,265.194,294.363,265.194z"/>
			
				<path style="fill:none;stroke:#08051A;stroke-width:0.5243;stroke-linecap:round;stroke-linejoin:round;stroke-miterlimit:10;" d="
				M328.694,264.062c0,0-6.384,1.799-12.305,0.509c0,0,2.221,8.702,3.238,9.442s2.776,1.943,3.608,1.85
				c0.833-0.093,3.701-2.035,4.164-2.683C327.862,272.533,328.694,264.062,328.694,264.062z"/>
		</g>
	</g>
</g>
</svg>
