<?xml version="1.0" encoding="utf-8"?>
<!-- Generator: Adobe Illustrator 27.5.0, SVG Export Plug-In . SVG Version: 6.00 Build 0)  -->
<svg version="1.1" xmlns="http://www.w3.org/2000/svg" xmlns:xlink="http://www.w3.org/1999/xlink" x="0px" y="0px"
	 viewBox="0 0 1100 700" style="enable-background:new 0 0 1100 700;" xml:space="preserve">
<g id="Background">
	<rect style="fill:#9EA6AD;" width="1100" height="700"/>
</g>
<g id="Shadow">
	<g style="opacity:0.3;">
		<path style="fill:#F1F2F2;" d="M521.964,524.118c-28.193,0.084-56.385,0.762-84.528,3.892c-10.611,1.18-21,3.776-31.635,4.823
			c-21.244,2.092-42.107,5.993-63.426,7.793c-17.168,1.449-34.408,2.305-51.526,4.143c-16.049,1.724-33.816,1.326-49.742-1.522
			c-11.79-2.109-23.633-3.296-35.225-6.682c-12.967-3.789-27.055-6.498-40.565-6.4c-19.266,0.139-38.028,0.155-56.466,6.845
			c-6.472,2.348-14.395,6.209-19.31,11.137c-11.251,11.282-12.774,39.432-1.54,51.133c18.921,19.693,59.305,27.42,85.827,27.785
			c29.063,0.4,57.296-1.758,86.401-3.026c27.045-1.179,54.023-2.856,81.113-2.797c55.328,0.121,110.664,0,165.893-3.696
			c51.888-3.472,103.907-2.28,155.909-2.28c53.326,0,106.291,0.419,159.233,7.506c23.067,3.088,46.568,4.169,69.75,6.332
			c20.762,1.938,40.714-0.038,61.394-1.829c17.365-1.504,34.616-5.964,50.391-13.503c12.487-5.968,34.749-24.507,38.579-38.752
			c10.736-39.935-151.3-38.975-176.179-38.885c-27.831,0.101-55.884,1.016-83.693-0.045c-11.698-0.446-23.224-2.733-34.641-5.238
			c-11.372-2.495-22.83-1.861-34.362-2.91c-48.092-4.374-96.291-3.734-144.536-3.734
			C553.379,524.209,537.671,524.071,521.964,524.118z"/>
	</g>
</g>
<g id="Object">
	<g>
		<g>
			<g id="XMLID_22_">
				<g id="XMLID_24_">
					<polygon style="fill:#EFC7A3;" points="354.404,366.498 358.49,369.598 362.928,368.868 363.558,369.746 362.526,370.578 
						366.38,371.045 368.551,373.366 367.76,377.552 364.5,380.453 360.496,379.214 357.099,375.515 351.325,371.519 					"/>
				</g>
				<g id="XMLID_23_">
					<path style="fill:#145566;" d="M358.032,366.359c-3.723-4.233-7.446-8.466-11.169-12.699c-2.403-2.733-4.867-5.423-7.215-8.203
						c-2.952-3.496-0.581-5.599-1.129-10.047c-1.234-10.007-2.855-20.829-10.056-27.885c-0.719-0.705-1.528-1.383-2.508-1.615
						c-1.855-0.437-3.756,0.924-4.578,2.644c-0.821,1.72-0.819,3.703-0.784,5.609c0.189,10.331-0.357,22.42,2.175,32.484
						c1.138,4.524,7.334,8.196,10.853,11.268c7.119,6.214,14.238,12.429,21.356,18.643L358.032,366.359z"/>
				</g>
			</g>
			<g>
				<g id="XMLID_21_">
					<polygon style="fill:#41352B;" points="322.325,547.937 322.325,552.279 333.458,557.845 339.025,552.279 333.458,546.712 
						332.74,546.712 332.561,547.937 					"/>
				</g>
				<g id="XMLID_20_">
					<polygon style="fill:#41352B;" points="294.908,546.712 294.14,546.712 288.573,552.279 294.14,557.845 305.272,552.279 
						305.272,547.937 295.037,547.937 					"/>
				</g>
				<g>
					<g id="XMLID_19_">
						<path style="fill:#145566;" d="M295.065,383.18c1.465-7.415,2.611-14.258,2.716-17.97c0.316-11.163,1.72-48.03,1.72-48.03
							l6.813-14.102l1.258,0.012c-0.09-0.011-0.181-0.022-0.271-0.033c0.296,0.035-0.142-2.725-0.248-2.969
							c-5.924-0.202-13.558,3.14-17.295,7.795c-2.765,3.445-4.408,7.656-6.01,11.794c-4.51,11.65-6.555,22.443-8.805,34.693
							c-1.435,7.811-2.76,15.586-3.803,23.34c-1.156,8.588-1.97,17.151-2.206,25.663c-0.026,0.941-0.213,3.573-0.317,6.716
							c-0.219,6.585-0.079,15.394,2.648,15.723c0.51,0.062,1.003-0.168,1.452-0.39c3.507-1.733,6.271-3.995,9.363-5.972
							l0.166-34.351L295.065,383.18z"/>
					</g>
					<g id="XMLID_18_">
						<path style="fill:#145566;" d="M357.73,418.485c-0.697-7.31-1.421-14.618-2.306-21.908
							c-1.764-14.539-4.165-29.044-8.227-43.119c-1.552-5.377-3.342-10.679-5.132-15.979c-2.179-6.454-4.359-12.908-6.538-19.362
							c-2.709-8.022-7.28-13.672-15.285-16.478c-1.43-0.501-2.934-0.888-4.485-1.171c-0.038,0.166-0.072,0.334-0.094,0.511
							c-0.093,0.77-0.309,1.625-0.788,2.184l5.254,0.051c0,0,14.823,52.679,15.367,61.759c0.207,3.451,0.896,10.986,1.662,18.922
							l8.049,1.205l0.345,30.359c0.451,0.132,0.899,0.259,1.344,0.379c2.554,0.689,4.632,2.582,6.753,4.067
							C356.783,422.096,358.157,422.965,357.73,418.485z"/>
					</g>
					<g id="XMLID_17_">
						<path style="fill:#145566;" d="M337.158,383.894c1.212,12.561,2.619,26.131,2.619,26.131s-6.508,0.156-15.922,0.87
							c0.696-0.016,1.393-0.035,2.088-0.041c6.548-0.059,13.339,2.77,19.608,4.604l-0.345-30.359L337.158,383.894z"/>
					</g>
					<g id="XMLID_16_">
						<path style="fill:#145566;" d="M293.22,414.716c-4.489,0.238-5.047-0.608-5.047-0.608s4.049-16.54,6.893-30.928l-12.818,1.919
							l-0.166,34.351c1.087-0.695,2.215-1.355,3.431-1.944C287.948,416.327,290.55,415.428,293.22,414.716z"/>
					</g>
					<g>
						<path style="fill:#545150;" d="M345.552,415.458c-6.269-1.834-13.061-4.663-19.609-4.604
							c-0.695,0.006-1.392,0.025-2.088,0.041c-0.583,0.044-1.176,0.091-1.78,0.139c-4.388,0.353-9.318,0.824-14.464,1.449
							c-0.253,0.031-0.504,0.06-0.758,0.092c-6.583,1.433-10.857,1.993-13.633,2.14c-2.669,0.712-5.272,1.611-7.708,2.791
							c-1.216,0.589-2.343,1.249-3.431,1.944l-0.035,7.153l12.551,121.498h10.291v1.237h0.059l11.315-81.496l0.047-0.459
							l6.199,81.955h0.059v-1.237h10.341l13.116-91.262L345.552,415.458z"/>
					</g>
					<g>
						<path style="fill:#FFFFFF;" d="M337.158,383.894c-0.766-7.937-1.455-15.471-1.662-18.923
							c-0.544-9.079-15.367-61.759-15.367-61.759l-5.254-0.051c-0.058,0.067-0.117,0.132-0.183,0.19
							c-0.162,0.143-0.349,0.256-0.565,0.328c-0.429,0.144-0.895,0.091-1.344,0.037c-1.737-0.209-3.474-0.418-5.211-0.627
							l-1.258-0.012l-6.813,14.102c0,0-1.405,36.867-1.72,48.03c-0.105,3.712-1.25,10.555-2.716,17.97
							c-2.843,14.388-6.893,30.928-6.893,30.928s0.558,0.845,5.047,0.608c2.775-0.147,7.049-0.707,13.633-2.14
							c0.254-0.032,0.505-0.061,0.758-0.092c5.147-0.625,10.077-1.096,14.464-1.449c0.604-0.048,1.198-0.095,1.78-0.139
							c9.414-0.714,15.922-0.87,15.922-0.87S338.37,396.455,337.158,383.894z"/>
					</g>
				</g>
			</g>
			<g>
				<g>
					<path style="fill:#1A3151;" d="M323.754,267.392c1.436,2.896,2.033,6.176,2.009,9.418c-0.006,0.862,0.001,1.859,0.66,2.402
						c0.704,0.582,0.001,1.741,0.594,1.043c0.594-0.698,2.613-3.126,2.744-4.039c0.308-2.14,0.415-4.31,0.319-6.47
						c-0.084-1.879-0.361-3.852-1.491-5.34c-0.671-0.883-1.592-1.526-2.5-2.151c-1.317-0.907-2.675-1.822-4.222-2.2
						c-2.665-0.651-4.366,0.245-2.088,2.277C321.411,263.789,322.771,265.409,323.754,267.392z"/>
				</g>
				<g>
					<g>
						<path style="fill:#EFC7A3;" d="M305.172,303.235c3.685,0.546,7.369,1.092,11.054,1.637c0.728-3.223,1.226-6.509,1.487-9.818
							c3.253-0.394,7.099-1.255,8.375-4.633c0.402-1.064,0.474-2.24,0.54-3.391c0.275-4.757,0.551-9.514,0.826-14.272
							c0.095-1.645,0.185-3.341-0.292-4.898c-0.837-2.731-3.227-4.458-5.599-5.59c-6.054-2.889-13.267-3.165-19.16,0.185
							c-1.568,0.891-3.065,2.065-4.026,3.715c-1.481,2.543-1.475,5.78-1.418,8.807c0.052,2.794,0.105,5.589,0.157,8.384
							c0.06,3.214,0.347,6.925,2.706,8.745c1.253,0.966,2.922,1.219,3.983,2.439C305.674,296.701,304.588,300.3,305.172,303.235z"/>
					</g>
				</g>
				<g>
					<path style="fill:#1A3151;" d="M327.859,285.194c-0.008-0.885-0.256-3.491-1.643-1.934c-0.363,0.407-0.477,1.003-0.527,1.568
						c-0.05,0.565-0.054,1.148-0.256,1.672c-0.464,1.202-1.823,1.689-3.008,1.605c-0.471-0.033-0.947-0.137-1.352-0.4
						c-0.393-0.255-0.695-0.645-0.99-1.027c-0.716-0.928-1.432-1.855-2.148-2.783c-1.23-1.595-3.858-1.071-5.632-0.929
						c-2.045,0.163-4.108,0.68-5.836,1.952c-0.174,0.128-0.345,0.264-0.516,0.399c-0.418,0.33-0.838,0.657-1.314,0.862
						c-1.608,0.695-3.509-0.218-4.535-1.728c-0.47-0.692-0.897-1.574-1.674-1.726c-0.608-0.119-1.226,0.296-1.57,0.862
						c-0.344,0.566-0.463,1.257-0.54,1.929c-0.279,2.45-0.074,5.002,0.863,7.238c2.033,4.847,6.396,5.657,10.815,5.783
						c1.747,0.049,3.494,0.099,5.241,0.148c3.194,0.091,6.573,0.133,9.356-1.612c2.455-1.539,4.007-4.294,4.735-7.227
						C327.703,288.332,327.872,286.758,327.859,285.194z M315.848,291.284c-1.738,1.061-3.593,1.026-5.436,0.354
						c-0.784-0.285-0.377-1.626,0.408-1.34c1.528,0.556,2.993,0.621,4.44-0.262C315.988,289.591,316.572,290.842,315.848,291.284z"
						/>
				</g>
				<g>
					<path style="fill:#1A3151;" d="M329.831,259.441c0.367-1.137,0.654-2.301,0.859-3.479c-1.099,0.329-2.28,0.369-3.399,0.118
						c0.032-0.684,0.064-1.369,0.096-2.053c0.024-0.569-7.527-1.365-8.14-1.448c-5.735-0.782-10.979-1.515-16.346,1.356
						c-4.585,2.452-7.64,6.312-8.587,11.496c-0.905,4.952,0.37,11.548,2.996,15.835c0.051-1.328-0.542-4.499-0.17-5.744
						c0.253-1.254,0.744-2.451,1.393-3.545c1.297-2.185,3.226-3.98,5.411-5.219c3.485-1.975,7.467-2.907,11.415-3.257
						c3.617-0.32,8.017-0.561,11.517,0.592c1.682,0.554,1.943,1.004,3.064-0.692c0.198-0.299,1.824-3.828,1.683-3.837
						C331.027,259.522,330.429,259.482,329.831,259.441z"/>
				</g>
			</g>
		</g>
		<g>
			<g>
				<polygon style="fill:#C2C4C3;" points="575.891,561.372 504.198,560.577 511.284,505.78 570.022,506.431 				"/>
				<polygon style="opacity:0.14;" points="509.242,520.946 571.29,518.303 573.014,534.438 				"/>
				<path style="fill:#E6E8E8;" d="M351.524,250.466v266.062c0,2.44,1.978,4.418,4.417,4.418h368.814
					c2.44,0,4.418-1.978,4.418-4.418V250.466c0-2.44-1.978-4.417-4.418-4.417H355.942
					C353.502,246.049,351.524,248.026,351.524,250.466z"/>
				<path style="fill:#1A3151;" d="M351.524,251.442v235.501h377.649V251.442c0-3.209-2.601-5.81-5.81-5.81H357.334
					C354.125,245.632,351.524,248.233,351.524,251.442z"/>
				<rect x="361.48" y="256.661" style="fill:#D1E7F5;" width="357.738" height="217.444"/>
				<rect x="483.691" y="553.825" style="fill:#E6E8E8;" width="113.316" height="19.765"/>
			</g>
		</g>
		<g>
			<g>
				<path style="fill:#1A3151;" d="M393.164,580.058H231.145c-1.663,0-3.011-1.348-3.011-3.011V368.419
					c0-1.663,1.348-3.011,3.011-3.011h162.019c1.663,0,3.011,1.348,3.011,3.011v208.628
					C396.175,578.71,394.827,580.058,393.164,580.058z"/>
				<rect x="236.968" y="374.776" style="fill:#D1E7F5;" width="150.374" height="185.81"/>
				<circle style="fill:#FFFFFF;" cx="312.155" cy="570.201" r="5.195"/>
			</g>
		</g>
		<g>
			<g>
				<g>
					<g>
						<path style="fill:#1A3151;" d="M966.33,555.629H683.151V372.211c0-3.113,2.523-5.636,5.636-5.636h271.907
							c3.113,0,5.636,2.523,5.636,5.636V555.629z"/>
					</g>
					<rect x="694.44" y="379.672" style="fill:#D1E7F5;" width="260.677" height="165.521"/>
				</g>
			</g>
			<g>
				<g>
					<path style="fill:#C0C2C2;" d="M966.305,580.058l-283.182-0.849c-6.892-0.02-13.277-3.628-16.848-9.523v0l316.933,0.945
						l0,0.001C979.601,576.506,973.197,580.078,966.305,580.058z"/>
					<path style="fill:#E6E8E8;" d="M981.573,572.211H667.908c-1.13,0-2.047-0.916-2.047-2.046V557.21
						c0-1.13,0.916-2.047,2.047-2.047h313.665c1.13,0,2.047,0.916,2.047,2.047v12.954
						C983.62,571.294,982.703,572.211,981.573,572.211z"/>
				</g>
				<path style="opacity:0.14;" d="M848.636,566.204h-47.79c-1.278,0-2.314-1.036-2.314-2.314v-1.403
					c0-1.278,1.036-2.314,2.314-2.314h47.79c1.278,0,2.314,1.036,2.314,2.314v1.403C850.95,565.168,849.914,566.204,848.636,566.204
					z"/>
			</g>
		</g>
		<g>
			<path style="fill:#EBB044;" d="M547.119,235.468c1.847-1.307,4.046-1.664,6.179-1.979c10.808-1.594,21.657-2.783,32.528-3.565
				c16.643-1.198,33.842-1.34,49.364,5.903c2.557,1.193,5.519,3.614,4.9,6.798c-0.517,2.656-3.183,3.684-5.435,4.189
				c-21.995,4.926-44.574,4.157-66.945,3.369C563.653,250.039,533.813,244.885,547.119,235.468z"/>
			<g>
				<path style="fill:#EFC7A3;" d="M590.466,239.152c0.447-0.203,0.843-0.486,1.147-0.882c0.073-0.095,0.141-0.199,0.164-0.317
					c0.027-0.138-0.011-0.28-0.049-0.415c-0.144-0.518-1.624-4.53-1.294-4.733c2.535-1.408,4.698-3.777,5.949-6.225
					c2.337-4.573,2.46-9.794,2.004-14.707c-0.655-7.062-3.105-14.803-9.651-17.391c-5.02-1.985-11.319,0.176-15.366,3.933
					c-5.203,4.832-4.405,12.795-3.306,18.933c0.786,4.389,2.671,8.743,5.758,12.006c1.551,1.64,3.42,2.981,5.527,3.811
					c1.023,0.403,1.977,0.32,2.281,1.337c0.377,1.259,0.193,3.129,0.313,4.471c0.02,0.222,0.054,0.472,0.232,0.606
					c0.128,0.096,0.299,0.107,0.459,0.114c1.097,0.042,2.196,0.032,3.292-0.03C588.782,239.614,589.699,239.501,590.466,239.152z"/>
				<path style="fill:#1A3151;" d="M591.82,204.161c2.554,1.5,5.057,4.049,4.589,6.974c1.34-0.665,3.006,0.638,3.2,2.122
					c0.194,1.483-0.632,2.909-1.59,4.058c1.496,0.252,2.964-0.827,3.646-2.182c0.682-1.355,0.75-2.927,0.776-4.444
					c0.078-4.499-0.118-9.119-1.85-13.272c-1.732-4.153-5.283-7.794-9.725-8.509c-1.369-0.22-2.769-0.161-4.147-0.011
					c-1.12,0.122-2.262,0.312-3.237,0.876C575.538,194.369,588.514,202.22,591.82,204.161z"/>
				<path style="fill:#1A3151;" d="M574.142,213.386c-1.865,3.623-2.248,7.774-2.243,11.786c0.003,2.667,1.109,5.565-2.357,4.644
					c-3.028-0.804-6.642-4.346-9.079-6.26c-0.971-0.763-1.959-1.586-2.473-2.709c-0.431-0.941-0.489-2.005-0.512-3.039
					c-0.114-4.936-0.607-11.34,1.149-15.985c1.803-4.768,5.472-8.646,9.432-11.736c5.504-4.295,12.021-7.094,18.749-3.308
					c1.451,0.816,2.75,1.873,4.041,2.924c2.948,2.401-0.69,5.25-2.242,7.43c-3.768,5.294-9.334,8.967-13.188,14.191
					C574.932,211.984,574.509,212.673,574.142,213.386z"/>
			</g>
			<g>
				<path style="fill:#EFC7A3;" d="M603.441,257.397c0.294,0.059,0.597,0.126,0.837,0.305c0.699,0.523,0.487,1.597,0.671,2.45
					c0.117,0.545,0.417,1.03,0.711,1.503c0.507,0.814,1.014,1.628,1.521,2.443c0.085,0.137,0.176,0.279,0.315,0.36
					c0.127,0.074,0.278,0.089,0.425,0.098c1.53,0.1,3.164-0.221,4.295-1.256c1.101-1.007,1.573-2.542,1.693-4.028
					c0.077-0.953,0.029-1.915-0.143-2.856c-0.053-0.292-0.123-0.592-0.302-0.83c-0.146-0.195-0.354-0.332-0.562-0.458
					c-1.311-0.796-2.795-1.305-4.319-1.481c-0.864-0.1-1.76-0.099-2.561-0.439c-0.561-0.238-1.04-0.629-1.527-0.995
					c-0.976-0.735-2.013-1.39-3.097-1.956c-0.216-0.113-1.15,4.759-1.174,5.204C600.113,257.504,601.774,257.065,603.441,257.397z"
					/>
				<path style="fill:#EBB044;" d="M552.714,228.595c-1.221-0.133-2.431-0.229-3.627-0.284c-1.312-0.061-2.656-0.101-3.91,0.292
					c-1.187,0.372-2.224,1.113-3.17,1.92c-4.122,3.515-8.564,10.401-3.782,14.96c1.433,1.366,3.388,2.02,5.291,2.566
					c5.253,1.507,10.637,2.501,16.011,3.492c14.369,2.651,28.738,5.302,43.106,7.953c0.923-2.998,1.846-5.996,2.769-8.994
					c0.753-2.446-19.548-11.969-21.883-12.976C574.189,233.495,563.078,229.721,552.714,228.595z"/>
			</g>
		</g>
		<g>
			<g>
				<polygon style="fill:#1A3151;" points="1025.839,548.623 1029.859,552.143 1026.33,565.65 1022.08,565.65 1019.58,555.759 
					1022.891,547.976 				"/>
				<polygon style="fill:#145566;" points="975.636,427.028 1004.923,432.509 988.122,491.393 1023.627,548.535 1019.58,555.759 
					968.601,501.589 963.995,488.155 967.195,433.828 				"/>
			</g>
			<g>
				<polygon style="fill:#1A3151;" points="1000.156,561.87 1000.402,567.398 998.943,574.083 1005.899,574.806 1009.481,568.484 
					1009.857,563.834 				"/>
				<polygon style="fill:#145566;" points="1027.115,427.024 1019.383,481.492 1009.857,563.834 1000.005,563.039 995.129,479.886 
					998.155,427.331 				"/>
			</g>
			<path style="fill:#3ABABA;" d="M955.679,442c-0.617,2.419-1.283,4.825-1.996,7.217c-0.152,0.51-0.304,1.071-0.094,1.56
				c0.178,0.414,0.578,0.682,0.965,0.912c4.825,2.877,10.921,3.521,16.241,1.718c2.622-0.889,5.039-2.331,7.7-3.097
				c4.462-1.284,9.135-0.594,13.683-0.34c4.51,0.252,8.443-0.896,12.774-1.252c10.618-0.873,13.457-1.403,23.56,1.774
				c0-19.124,3.909-33.831,1.001-51.823c-2.871-17.76-5.742-35.52-8.613-53.281c-0.484-2.996-0.987-6.055-2.225-8.693
				c-5.595-11.927-18.761-14.203-30.45-10.793c-5.948,1.735-10.684,8.444-13.607,13.659c-3.736,6.665-5.793,14.17-7.271,21.621
				c-4.625,23.313-4.776,47.337-9.371,70.657C957.304,435.247,956.538,438.635,955.679,442z"/>
			<g>
				<g>
					<g>
						<g>
							<path style="fill:#EFC7A3;" d="M995.282,328.405c0.1,0.236,0.241,0.465,0.436,0.687c0.768,0.875,1.88,1.42,3.004,1.664
								c1.483,0.323,3.023,0.184,4.53,0.007c2.036-0.238,2.05-1.419,2.473-3.221c0.461-1.965,0.693-3.975,0.933-5.977
								c2.915-0.239,6.377-0.876,7.639-3.855c0.398-0.938,0.505-1.989,0.607-3.016c0.42-4.249,0.841-8.497,1.262-12.746
								c0.146-1.469,0.288-2.984-0.08-4.394c-0.646-2.474-2.714-4.103-4.788-5.199c-5.292-2.797-11.714-3.295-17.092-0.501
								c-1.431,0.743-2.809,1.742-3.727,3.185c-1.415,2.225-1.528,5.123-1.589,7.835c-0.056,2.503-0.112,5.007-0.169,7.51
								c-0.065,2.879,0.054,6.211,2.091,7.922c1.082,0.908,2.561,1.193,3.462,2.322c1.128,1.415,0.905,3.4,0.835,5.086
								C995.07,326.677,994.932,327.582,995.282,328.405z"/>
						</g>
						<path style="fill:#1A3151;" d="M1011.62,296.928c0.118,0.244,0.214,0.495,0.283,0.753c0.363,1.355-0.055,2.826,0.297,4.184
							c0.557,2.154,2.92,3.594,3.132,5.809c0.173,1.811-1.172,3.424-1.406,5.228c-0.256,1.971,0.877,3.936,0.539,5.875
							c-0.293,1.685-1.542,3.992-2.653,5.279c0.344-0.399,3.174-0.044,3.944-0.441c1.179-0.608,1.339-1.034,1.76-2.186
							c0.418-1.144,0.242-2.314,0.849-3.474c0.744-1.422,2.132-2.405,2.704-3.938c0.78-2.091-0.194-4.428,0.056-6.646
							c0.377-3.358,3.517-6.32,2.691-9.597c-0.484-1.922-2.221-3.254-3.124-5.018c-0.686-1.34-0.864-2.874-1.303-4.313
							c-0.439-1.44-1.266-2.908-2.675-3.437c-0.783-0.294-1.65-0.259-2.459-0.471c-1.398-0.366-2.505-1.429-3.838-1.99
							c-1.906-0.802-5.495,0.925-6.755,2.498c-1.25,1.562-0.78,3,0.272,4.537C1005.685,292.141,1010.228,294.061,1011.62,296.928z"
							/>
					</g>
					<path style="fill:#1A3151;" d="M984.455,285.212c-1.233,0.775-2.723,1.291-3.865,2.217c-2.226,1.807-2.848,4.908-3.129,7.76
						c-0.251,2.54-1.527,4.721-1.443,7.393c0.057,1.795,0.684,3.651,2.058,4.807c1.711,1.44,4.529,1.859,5.184,3.997
						c0.712,2.322-1.834,4.999-0.555,7.064c0.706,1.139,2.23,1.409,3.299,2.217c1.192,0.902,1.731,2.398,2.402,3.734
						c0.672,1.336,1.726,2.701,3.215,2.841c0.224-2.263,0.421-4.055-0.398-6.199c-0.477-1.249-1.978-3.597-0.607-4.814
						c0.883-1.029,2.809-1.246,2.955-2.594c0.069-0.633-0.335-1.206-0.646-1.761c-1.205-2.151-1.145-4.896-0.063-7.111
						c1.082-2.215,3.103-3.901,5.394-4.813c2.684-1.069,2.312-1.732,3.245-4.161c0.859-2.235,2.194-2.677,4.311-3.362
						c1.901-0.615,2.528-1.038,3.334-2.717c0.59-1.229,1.313-2.699,0.692-4.163c-0.494-1.163-1.471-2.04-2.418-2.877
						c-1.979-1.748-4.211-3.596-6.851-3.597c-1.466,0-2.888,0.586-4.354,0.564c-0.978-0.015-1.931-0.301-2.904-0.403
						c-1.658-0.175-3.448,0.203-4.865,1.096c-1.43,0.9-1.467,1.948-2.323,3.31C985.703,284.307,985.116,284.797,984.455,285.212z"/>
					<path style="fill:#1A3151;" d="M991.009,276.313c0.369-1.561,0.354-3.632-1.116-4.274c-0.806-0.352-1.755-0.099-2.602-0.335
						c-1.804-0.505-2.268-2.767-3.112-4.439c-0.126-0.25-0.28-0.506-0.527-0.638c-0.354-0.189-0.783-0.075-1.184-0.055
						c-1.838,0.091-3.093-1.807-4.762-2.583c-2.066-0.96-4.834,0.175-5.631,2.309c-0.328,0.877-0.351,1.843-0.663,2.725
						c-1.263,3.576-6.718,4.742-7.125,8.513c-0.275,2.548,2.048,5.176,0.905,7.47c-0.731,1.467-2.75,2.358-2.644,3.993
						c0.068,1.052,1.126,1.841,2.179,1.903c1.053,0.061,2.06-0.446,2.902-1.081c1.336-1.007,2.385-2.348,3.667-3.424
						c1.282-1.076,2.947-1.904,4.588-1.577c1.59,0.316,2.951,1.67,4.565,1.518c1.291-0.122,2.319-1.191,3.595-1.421
						c1.194-0.215,2.379,0.333,3.581,0.493c1.202,0.16,2.731-0.362,2.85-1.569c0.029-0.292-0.031-0.601,0.081-0.873
						c0.314-0.761,1.643-0.62,1.952-1.383c-0.56-1.017-1.474-0.733-1.835-2.035C990.394,278.54,990.777,277.294,991.009,276.313z"/>
				</g>
			</g>
			<g>
				<g>
					<path style="fill:#E4E4E4;" d="M1015.451,381.155c-0.042-0.085-0.109-0.161-0.215-0.222c-0.119-0.069-0.249-0.12-0.378-0.166
						c-1.29-0.46-2.746-0.56-4.098-0.681c-2.214-0.199-4.44-0.267-6.662-0.267c-2.223,0-4.45,0.068-6.665,0.267
						c-1.352,0.121-2.808,0.221-4.098,0.682c-0.376,0.134-0.801,0.319-0.773,0.763c0.006,0.103,0,0.207,0,0.31
						c0,0.288,0,0.576,0,0.864c0,0.851,0,1.702,0,2.554c0,1.126,0,2.252,0,3.379c0,1.291,0,2.582,0,3.873c0,1.345,0,2.69,0,4.035
						c0,1.289,0,2.578,0,3.866c0,1.122,0,2.244,0,3.366c0,0.845,0,1.69,0,2.535c0,0.288,0,0.577,0,0.865
						c0,0.358-0.05,0.615,0.242,0.866c0.114,0.098,0.26,0.161,0.398,0.217c0.49,0.196,1.023,0.297,1.541,0.389
						c1.787,0.317,3.614,0.436,5.424,0.519c1.31,0.06,2.62,0.086,3.931,0.086c6.304,0,11.415-0.635,11.415-1.419
						c0-0.04,0-0.08,0-0.12h-0.01c0.004-0.033,0.01-0.065,0.01-0.099c0-0.49,0-0.979,0-1.469c0-0.86,0-1.72,0-2.58
						c0-1.123,0-2.246,0-3.37c0-1.28,0-2.56,0-3.84c0-1.33,0-2.66,0-3.99c0-1.273,0-2.546,0-3.82c0-1.11,0-2.219,0-3.329
						c0-0.84,0-1.679,0-2.519c0-0.285,0-0.57,0-0.855C1015.513,381.604,1015.549,381.354,1015.451,381.155z"/>
					<path style="fill:#B09C85;" d="M1015.316,381.386c0,0.759-5.049,1.375-11.277,1.375c-6.228,0-11.277-0.616-11.277-1.375
						s5.049-1.375,11.277-1.375C1010.268,380.011,1015.316,380.626,1015.316,381.386z"/>
					<g>
						<path style="fill:#1A3151;" d="M1003.66,380.524c-5.272,0-9.591,0.567-9.925,1.421c1.266,0.424,5.298,0.816,10.226,0.816
							c4.252,0,7.946-0.172,9.624-0.643c0.02-0.042,0.455-0.053,0.455-0.097C1014.04,381.119,1009.151,380.524,1003.66,380.524z"/>
					</g>
					<path style="fill:#E4E4E4;" d="M996.12,388.016c-2.428-2.271-5.584-3.769-8.715-2.528c-2.502,0.991-4.272,3.534-4.616,6.257
						c-0.726,5.748,6.101,10.48,10.73,8.302c1.341-0.631,0.391-2.765-0.961-2.115c-3.424,1.647-8.011-2.607-6.887-6.294
						c1.322-4.335,5.592-4.481,8.674-1.679C995.577,391.081,997.363,389.179,996.12,388.016z"/>
				</g>
				<g>
					<path style="fill:#F0F0F0;" d="M1002.842,362.482c1.017,0.059,1.014-1.524,0-1.583c-2.448-0.142-4.679,1.304-4.963,3.884
						c-0.136,1.236,0.261,2.322,0.961,3.327c1.283,1.844,4.575,3.959,1.398,6.203c-0.825,0.583-0.036,1.956,0.799,1.367
						c1.497-1.057,2.383-2.7,1.968-4.57c-0.208-0.938-0.756-1.62-1.385-2.318c-0.592-0.659-1.548-1.268-1.835-2.133
						C999.024,364.369,1000.389,362.339,1002.842,362.482z"/>
					<path style="fill:#F0F0F0;" d="M1010.36,364.078c1.017,0.059,1.014-1.524,0-1.583c-2.448-0.142-4.679,1.304-4.963,3.884
						c-0.136,1.236,0.261,2.322,0.961,3.327c1.283,1.845,4.575,3.96,1.397,6.203c-0.825,0.583-0.035,1.956,0.799,1.367
						c1.497-1.057,2.383-2.7,1.968-4.57c-0.208-0.938-0.756-1.62-1.385-2.318c-0.592-0.659-1.548-1.268-1.835-2.134
						C1006.542,365.965,1007.907,363.935,1010.36,364.078z"/>
				</g>
			</g>
			<g>
				<path style="fill:#E3CFBB;" d="M990.912,391.933c-0.031-0.16-0.074-0.317-0.133-0.468c-0.548-1.41-2.067-1.467-2.884-2.509
					c-0.364-0.465-0.267-2.312-1.235-1.96c-0.356,0.133-1.586,0.478-2.804,0.901c-1.043-0.034-2.092-0.02-3.12-0.155
					c-2.6-0.341-7.466-4.22-9.721-1.14c-0.436,0.596-0.881,1.208-1.097,1.906c-0.177,0.571-0.19,1.168-0.175,1.752
					c0.012,0.455-0.077,1.188,0.239,1.472c0.332,0.297,1.486,0.307,1.94,0.401c1.298,0.269,2.597,0.537,3.896,0.806
					c1.274,0.263,2.741,0.697,3.11,1.959c0.081,0.276,0.1,0.576,0.218,0.835c0.133,0.293,0.379,0.508,0.624,0.708
					c0.9,0.731,1.886,1.402,2.948,1.888c1.899,0.867,4.856-0.983,6.576-1.902c0.428-0.229,0.865-0.48,1.167-0.868
					c0.491-0.632,0.522-1.479,0.53-2.255C990.995,392.844,990.998,392.375,990.912,391.933z"/>
				<path style="fill:#3ABABA;" d="M944.706,367.77c-0.822,2.174-1.292,4.471-1.148,6.982c0.149,2.61,1.597,5.014,3.495,6.811
					c1.898,1.797,4.228,3.064,6.561,4.243c6.958,3.517,14.216,6.441,21.669,8.73c1.242-2.533,2.483-5.066,3.725-7.598
					c0.301-0.613,0.608-1.309,0.387-1.955c-0.209-0.612-0.824-0.974-1.392-1.283c-2.703-1.47-5.406-2.941-8.11-4.411
					c-2.538-1.38-5.23-2.918-6.491-5.516c-2.414-4.974,3.115-7.124,5.878-9.947c3.756-3.839,7.645-7.585,11.285-11.534
					c3.449-3.525,6.994-7.202,8.502-11.793c3-9.133-0.094-15.511-8.701-11.731c-5.455,2.396-9.538,6.62-15.282,11.87
					C957.284,347.768,948.48,357.795,944.706,367.77z"/>
			</g>
		</g>
		<g>
			<g>
				<g>
					<g>
						<g>
							<path style="fill:#EFC7A3;" d="M116.816,437.63c4.213-11.526,21.085-15.021,24.49-1.345c1.023,4.11,1.572,8.452,0.63,12.587
								c-0.943,4.136-3.588,8.046-7.467,9.623c-0.022,0.009-0.044,0.015-0.067,0.024c0.111,1.086,0.221,2.172,0.332,3.257
								c0.024,0.233,0.042,0.49-0.094,0.681c-0.154,0.217-0.446,0.265-0.707,0.296c-1.275,0.15-2.55,0.299-3.826,0.449
								c-0.632,0.074-1.29,0.146-1.888-0.072c-1.309-0.476-1.803-2.11-1.811-3.525c-0.001-0.338,0.014-0.68,0.031-1.022
								C119.027,455.716,114.063,445.165,116.816,437.63z"/>
						</g>
					</g>
					<g>
						<g>
							<g>
								<path style="fill:#1A3151;" d="M140.78,439.91c1.58,3.173,1.128,6.832,0.342,10.167c-0.769,3.261-0.706,6.524-1.778,9.725
									c0.303,0.544,1.119,0.279,1.644-0.051c3.077-1.934,6.127-3.911,9.15-5.931c0.304-0.203,0.617-0.416,0.813-0.727
									c0.249-0.395,0.273-0.889,0.283-1.357c0.189-9.245-2.773-16.286-7.241-24.011c-2.169-3.751-8.479-8.262-12.657-4.417
									c-0.951,0.875-1.39,2.176-1.733,3.432c-0.205,0.75-0.39,1.529-0.287,2.299c0.409,3.072,3.24,3.168,5.354,4.336
									C137.277,434.816,139.447,437.232,140.78,439.91z"/>
							</g>
						</g>
						<g>
							<g>
								<path style="fill:#1A3151;" d="M119.284,444.008c-0.247,2.646,0.091,5.708,0.651,8.284c0.194,0.892,1.666,3.062,1.663,3.653
									c-0.008,1.713-3.875,5.379-4.924,6.779c-5.183-3.543-10.365-7.086-15.548-10.629c-0.397-0.271-0.812-0.564-1.016-1.003
									c-0.186-0.399-0.169-0.862-0.144-1.303c0.5-8.678,3.451-16.245,7.478-23.763c4.024-7.514,12.007-13.181,20.661-11.826
									c6.993,1.095,11.429,6.742,8.182,13.749c-2.451,5.29-9.365,5.815-13.419,9.208
									C120.323,439.286,119.44,441.554,119.284,444.008z"/>
							</g>
						</g>
					</g>
				</g>
			</g>
			<g>
				<g>
					<path style="fill:#145566;" d="M95.011,536.623c6.201-3.43,12.293,0.785,16.715,4.765c8.763,7.877,18.287,14.872,27.637,22.063
						c3.09-1.746,6.473-3.641,8.016-4.449c9.461-4.956,19.126-9.606,28.04-15.412c4.352-2.839,10.309-5.482,16.139-0.44
						c4.781,4.135,6.516,11.561,4.99,16.074c-1.526,4.513-5.408,6.776-9.269,8.655c-9.73,4.736-21.13,10.703-32.031,11.895
						c-4.749,0.519-10.097,0.194-14.891,0.072c-8.316-0.213-16.443-1.63-24.634-3.045c-2.658-0.459-5.358-0.976-7.729-2.262
						c-8.37-4.542-17.113-6.298-19.574-16.777C86.754,550.664,87.962,540.524,95.011,536.623z"/>
					<path style="fill:#145566;" d="M102.683,556.592c0.722-6.243,3.851-11.198,9.631-13.912c4.688-2.201,9.959-2.718,15.096-3.378
						c11.441-1.468,22.363-2.936,33.915-2.482c9.238,0.363,14.931,8.245,19.255,16.018c2.725,4.899,1.968,7.197-1.462,11.3
						c-3.163,3.783-7.002,7.001-11.289,9.438c-8.49,4.824-21.532,3.632-30.882,2.59c-8.825-0.984-17.463-3.62-25.334-7.73
						C106.547,565.79,101.98,562.67,102.683,556.592z"/>
				</g>
				<path style="fill:#B5D6CA;" d="M132.76,461.959c-4.351-0.58-8.769-1.369-12.414,0.22c-3.087,1.346-3.034,5.244-3.725,8.191
					c-2.284,9.75-4,19.618-5.344,29.539c-0.642,4.743-1.753,9.822-1.725,14.613c0.022,3.844,0.985,7.581,0.689,11.499
					c-0.227,3.01-1.507,6.259-4.263,7.49c-1.387,0.619-2.98,0.648-4.37,1.261c-1.39,0.613-2.58,2.249-1.88,3.598
					c0.333,0.641,0.998,1.027,1.629,1.379c3.438,1.917,6.875,3.834,10.313,5.751c2.626,1.464,5.266,2.935,8.095,3.951
					c4.009,1.44,8.295,1.93,12.549,2.146c10.988,0.558,22.063-0.657,32.668-3.583c5.709-1.576,11.225-4.371,9.84-10.831
					c-1.426-6.648-4.183-13.282-7.156-19.37c-3.599-7.37-4.666-16.251-7.216-24.028c-2.584-7.882-5.316-15.714-8.069-23.538
					c-0.01-0.03-0.021-0.059-0.031-0.089c-1.006-2.86-1.419-5.689-3.635-8.01c-3.034-3.174-4.494-0.65-7.938-0.004
					C138.276,462.613,135.532,462.329,132.76,461.959z"/>
			</g>
		</g>
		<g id="XMLID_13_">
			<g id="XMLID_15_">
				<polygon style="fill:#EFC7A3;" points="308.619,361.008 313.551,362.413 317.422,360.121 318.327,360.711 317.668,361.861 
					321.429,360.896 324.294,362.27 325.076,366.459 323.092,370.345 318.912,370.645 314.403,368.431 307.573,366.803 				"/>
			</g>
			<g id="XMLID_14_">
				<path style="fill:#145566;" d="M312.235,358.918c-7.475-4.674-20.609-8.234-17.732-18.608c2.694-9.716,5.854-20.192,2.14-29.566
					c-0.371-0.936-0.834-1.885-1.636-2.494c-1.517-1.153-3.808-0.682-5.257,0.556c-1.449,1.238-2.253,3.051-2.995,4.806
					c-2.516,5.949-9.947,25.276-10.945,29.049c-0.892,3.37-2.969,7.148-1.344,10.639c0.772,1.659,2.682,2.823,4.167,3.789
					c4.557,2.963,9.636,5.185,14.649,7.246c0.956,0.393,15.285,5.875,15.471,4.87L312.235,358.918z"/>
			</g>
		</g>
		<g>
			<g>
				<g>
					<path style="fill:#1A3151;" d="M713.735,580.058h-92.29c-1.828,0-3.309-1.482-3.309-3.309V411.898
						c0-1.828,1.482-3.309,3.309-3.309h92.29c1.828,0,3.309,1.482,3.309,3.309v164.851
						C717.044,578.576,715.563,580.058,713.735,580.058z"/>
				</g>
				<rect x="625.472" y="417.511" style="fill:#D1E7F5;" width="84.237" height="138.93"/>
				<path style="fill:#FFFFFF;" d="M676.568,573.131h-17.956c-1.155,0-2.091-0.936-2.091-2.091v-3.081
					c0-1.155,0.936-2.091,2.091-2.091h17.956c1.155,0,2.092,0.936,2.092,2.091v3.081
					C678.659,572.195,677.723,573.131,676.568,573.131z"/>
			</g>
		</g>
		<g>
			<g>
				<rect x="183.657" y="540.88" style="fill:#1A3151;" width="41.476" height="39.179"/>
				<rect x="183.657" y="413.584" style="fill:#1A3151;" width="41.476" height="39.179"/>
			</g>
			<path style="fill:#1A3151;" d="M235.327,533.426h-61.865c-2.481,0-4.492-2.011-4.492-4.491v-64.227
				c0-2.48,2.011-4.491,4.492-4.491h61.865c2.48,0,4.491,2.011,4.491,4.491v64.227C239.819,531.415,237.808,533.426,235.327,533.426
				z"/>
			<rect x="176.941" y="468.187" style="fill:#D1E7F5;" width="54.907" height="57.269"/>
			<g>
				<path style="fill:#1A3151;" d="M231.676,467.549h-54.564c-3.014,0-5.213-2.52-4.446-5.096l6.936-15.492
					c0.531-1.784,2.357-3.028,4.446-3.028h40.692c2.088,0,3.915,1.244,4.446,3.028l6.936,15.492
					C236.889,465.029,234.691,467.549,231.676,467.549z"/>
				<path style="fill:#1A3151;" d="M177.113,526.093h54.564c3.014,0,5.213,2.52,4.446,5.096l-6.936,15.492
					c-0.531,1.784-2.358,3.028-4.446,3.028h-40.692c-2.088,0-3.914-1.244-4.446-3.028l-6.936-15.492
					C171.9,528.613,174.098,526.093,177.113,526.093z"/>
			</g>
		</g>
		<g>
			<path style="fill:#EFC7A3;" d="M176.539,529.079c-0.578-1.582-1.155-3.164-1.733-4.746c-0.179-0.49-0.415-1.954-1.161-1.735
				c-0.362,0.107-1.612,0.361-2.85,0.694c-1.062-0.111-2.13-0.174-3.177-0.384c-2.649-0.532-7.623-4.766-9.901-1.854
				c-0.441,0.563-0.89,1.143-1.107,1.824c-0.177,0.557-0.187,1.153-0.169,1.738c0.014,0.456-0.072,1.182,0.251,1.488
				c0.339,0.321,1.514,0.416,1.977,0.543c1.323,0.364,2.647,0.728,3.97,1.092c1.298,0.357,2.794,0.898,3.176,2.186
				c0.084,0.282,0.105,0.582,0.226,0.85c0.137,0.302,0.388,0.536,0.639,0.753c0.92,0.796,1.927,1.539,3.009,2.102
				c0.988,0.514,1.714,0.025,2.694-0.301c1.146-0.381,2.253,0.013,3.391-0.338c0.642-0.198,1.24-0.676,1.385-1.331
				c0.117-0.53-0.072-1.075-0.258-1.585C176.782,529.744,176.661,529.411,176.539,529.079z"/>
			<path style="fill:#B5D6CA;" d="M129.1,514.894c1.762,2.453,4.005,4.386,6.995,6.112c7.387,4.263,15.441,7.372,23.776,9.177
				c1.99-3.469,3.282-7.335,3.777-11.304c-6.333-3.001-12.426-6.505-18.204-10.469c-2.831-1.942-5.015-4.136-5.196-7.742
				c-0.402-8.028-0.2-16.084,0.605-24.079c0.178-1.768,0.383-3.574-0.026-5.304c-0.749-3.173-3.577-5.628-6.747-6.426
				c-3.169-0.797-6.584-0.099-9.474,1.414c-2.071,1.084-3.982,2.653-4.95,4.776c-1.002,2.197-0.895,4.722-0.691,7.129
				c0.911,10.739,3.382,21.349,7.314,31.396C127.074,511.605,127.992,513.352,129.1,514.894z"/>
		</g>
		<polygon style="fill:#E3CFBB;" points="1004.464,395.78 1007.232,389.295 1015.411,389.295 1022.4,395.78 1013.432,399.778 		"/>
	</g>
</g>
</svg>
